<svg height="149" viewBox="0 0 149 149.00001" width="149" xmlns="http://www.w3.org/2000/svg"><g stroke-width=".133333"><path d="m18.8714 137.64167-.58-.45052v-5.32396l.73333-.63228c3.32934-.17448 5.96134-.32709 7.90667-.47917 1.992-.14375 3.216-.27604 3.828-.40782 1.08-.25208 1.98-.69634 2.664-1.34426.684-.63594 1.128-1.48803 1.32-2.4599.912-4.38026 1.344-13.54786 1.344-27.683862v-46.992132c0-14.124-.432-23.292267-1.344-27.683866-.192-.971867-.636-1.812-1.32-2.459867-.684-.648533-1.584-1.080267-2.652-1.3444h-.012c-.612-.131733-1.848-.264-3.864-.407733-1.94533-.152667-4.6-.304667-7.964-.479734l-.64-.609866v-5.253067l.676-.5324c6.712.3396 16.88667.5152 30.56.5152 5.736 0 13.98-.0844 24.756-.264133 10.764-.180133 16.968-.264 18.6-.264 9.288 0 16.92 1.019733 22.896 3.047867 5.964 2.028133 10.26 5.040133 12.948 8.999999 2.784 4.152133 4.176 9.155733 4.176 15.095867-.012 12.023999-4.668 21.287999-14.088 28.020265-9.468 6.755734-20.136 10.1276-32.076 10.1396-3.928 0-7.89067-.385866-11.88667-1.166666-.62266-1.521867-1.684-3.410934-3.18133-5.698934l1.45333-1.323466c2.764.771866 5.33067 1.169333 7.68667 1.169333 7.02 0 12.756-2.171867 17.04-6.552133 4.308-4.379733 6.432-10.524 6.432-18.276 0-8.376133-2.172-14.783866-6.624-19.079732-4.44-4.2964-11.052-6.3844-19.704-6.3844-2.124 0-6.204.3604-12.348 1.068266l-.384.04787-.144.36c-.132.288-.192.611867-.264 1.080133-.252 1.595867-.42 4.704133-.54 9.407867-.12 4.692133-.18 10.968133-.18 18.828133v46.992132c0 14.135999.444 23.303599 1.344 27.683859l.66-.13173-.66.13173c.192.97187.636 1.81198 1.32 2.4599s1.584 1.09218 2.652 1.34426h.012.012c.24.0479.624.0839 1.296.13178 1.968.15416 6.164.41354 12.57333.75573l.72267.62968v5.25937l-.57867.50991c-9.296-.34167-20.39466-.51876-33.30933-.51876-14.46933 0-24.884.17552-31.268.52604" fill="#bdbbbc"/><path d="m18.4354 139-.192-.15624-1.032-.80417-.252-.19167v-.33593-5.95208-.3l.228-.19219 1.128-.98386.168-.15624.228-.012c3.444-.17968 6.144-.33593 8.112-.47968 1.968-.14428 3.228-.28803 3.636-.38437.9-.21563 1.572-.56407 2.04-1.0198.48-.44428.78-1.00775.936-1.75215.864-4.14 1.32-13.33173 1.32-27.419732v-46.992122c0-14.076133-.456-23.267733-1.32-27.407866v-.012c-.156-.744267-.456-1.296267-.936-1.752-.468-.456267-1.14-.792267-2.04-1.0204v.012c-.408-.107867-1.68-.2396-3.66-.383867-1.98-.155733-4.716-.312-8.184-.4916l-.24-.012-.18-.168267-1.032-.983866-.204-.192134v-.288-5.867733-.324533l.252-.1916 1.128-.888.192-.156267.252.012c6.66.3484 16.908.528 30.744.528 5.724 0 13.956-.08373 24.732-.264 10.776-.179733 16.968-.264 18.624-.264 9.384 0 17.148 1.032267 23.316 3.120267s10.74 5.255733 13.632 9.5156c2.952 4.392133 4.416 9.696399 4.416 15.840133.012 12.372399-4.908 22.163999-14.652 29.111999-9.684 6.912-20.664 10.380133-32.856 10.380133-4.128 0-8.304-.419733-12.504-1.259867l-.36-.0724-.132-.335866c-.576-1.512-1.74-3.624-3.504-6.264134l-.312-.479733.42-.383733 2.148-1.956267.276-.252133.36.0964c2.808.8156 5.376 1.223866 7.68 1.223866 6.756-.01187 12.06-2.051999 16.092-6.156266 4.008-4.0796 6.048-9.816133 6.048-17.34 0-8.159999-2.1-14.147999-6.216-18.119866-4.104-3.971866-10.332-6.012-18.78-6.012-1.932 0-5.88933.3428-11.756 1.017734-.0267.1152-.0533.253733-.076.4104-.06.407866-.12.96-.18 1.643733-.108 1.368267-.204 3.264133-.288 5.688133-.144 4.823867-.228 11.723866-.228 20.7v46.992132c0 14.088002.456 23.279732 1.32 27.419732.144.7444.456 1.30787.924 1.75215.46133.45 1.12267.79428 2.016 1.01094v-.003c.084.024.504.0604 1.152.12032.648.0479 1.56.10781 2.736.17968 2.328.15625 5.676.34792 10.032.57604l.228.012.18.15624 1.116.98386.228.19219v.3 5.86771.3l-.228.20416-1.008.88802-.204.16771h-.264c-9.336-.35989-20.496-.53959-33.516-.53959-14.652 0-25.14.1797-31.452.5276zm-.144-1.80885.58.45052c6.384-.35052 16.79867-.52604 31.268-.52604 12.91467 0 24.01333.17709 33.30933.51876l.57867-.50991v-5.25937l-.72267-.62968c-6.40933-.34219-10.60533-.60157-12.57333-.75573-.672-.0479-1.056-.0839-1.296-.13178h-.012-.012c-1.068-.25208-1.968-.69634-2.652-1.34426s-1.128-1.48803-1.32-2.4599l.66-.13173-.66.13173c-.9-4.38026-1.344-13.54786-1.344-27.683862v-46.992132c0-7.86.06-14.136.18-18.828133.12-4.703734.288-7.812.54-9.407867.072-.468266.132-.792133.264-1.080133l.144-.36.384-.04787c6.144-.707866 10.224-1.068266 12.348-1.068266 8.652 0 15.264 2.088 19.704 6.3844 4.452 4.295866 6.624 10.703599 6.624 19.079732 0 7.752-2.124 13.896267-6.432 18.276-4.284 4.380266-10.02 6.552133-17.04 6.552133-2.356 0-4.92267-.397467-7.68667-1.169333l-1.45333 1.323466c1.49733 2.288 2.55867 4.177067 3.18133 5.698934 3.996.7808 7.95867 1.166666 11.88667 1.166666 11.94-.012 22.608-3.383866 32.076-10.1396 9.42-6.732266 14.076-15.996266 14.088-28.020265 0-5.940134-1.392-10.943734-4.176-15.095867-2.688-3.959866-6.984-6.971866-12.948-8.999999-5.976-2.028134-13.608-3.047867-22.896-3.047867-1.632 0-7.836.08387-18.6.264-10.776.179733-19.02.264133-24.756.264133-13.67333 0-23.848-.1756-30.56-.5152l-.676.5324v5.253067l.64.609866c3.364.175067 6.01867.327067 7.964.479734 2.016.143733 3.252.276 3.864.407733h.012c1.068.264133 1.968.695867 2.652 1.3444.684.647867 1.128 1.488 1.32 2.459867.912 4.391599 1.344 13.559866 1.344 27.683866v46.992132c0 14.136005-.432 23.303605-1.344 27.683865-.192.97187-.636 1.82396-1.32 2.4599-.684.64792-1.584 1.09218-2.664 1.34426-.612.13178-1.836.26407-3.828.40782-1.94533.15208-4.57733.30469-7.90667.47917l-.73333.63228z" fill="#dedddd"/><path d="m132.61673 39.266699c0 12.200533-4.78933 21.725466-14.368 28.564533-9.58 6.840133-20.40133 10.259466-32.464 10.259466-4.09067 0-8.216-.414133-12.37466-1.240666-.60934-1.596934-1.80134-3.7308-3.57467-6.396934l2.148-1.956266c2.856.828133 5.484 1.242266 7.872 1.242266 6.88 0 12.404-2.114666 16.56266-6.352133 4.15867-4.2328 6.24-10.170799 6.24-17.813466 0-16.5272-8.55466-24.790666-25.66399-24.790666-2.04934 0-6.14134.359333-12.268 1.0688-.61734 1.4192-.92134 11.1072-.92134 29.053599v47.000532c0 14.102536.44267 23.282266 1.33067 27.545336.33333 1.71866 1.49067 2.81401 3.47067 3.28641.612.11875 5.284.41407 14.01066.88697l1.12133.98022v5.86458l-1.01733.88698c-9.344-.3552-20.51866-.53282-33.53733-.53282-14.66 0-25.156.17762-31.492.53282l-1.02533-.79844v-5.95312l1.12266-.98022c6.884-.35416 10.836-.65104 11.86134-.88697 1.976-.4724 3.13333-1.56775 3.47866-3.28641.88667-4.26307 1.33067-13.4428 1.33067-27.545336v-47.000532c0-14.097866-.444-23.278132-1.33067-27.545866-.34533-1.714533-1.50266-2.813066-3.47866-3.2864-1.02534-.236533-5.01067-.532266-11.95867-.887599l-1.02533-.980134v-5.864133l1.12266-.8864c6.68267.354667 16.94134.531733 30.77867.531733 5.72533 0 13.97067-.08853 24.74133-.2656 10.77067-.1776 16.97467-.266133 18.612-.266133 18.67467 0 30.812 4.1188 36.39867 12.347866 2.864 4.267733 4.29733 9.421867 4.29733 15.464133" fill="#231f20"/><path d="m132.61673 39.266699h-.668c-.0133 12.026533-4.67333 21.2828-14.08667 28.0224-9.47466 6.760399-20.14 10.132266-32.07733 10.134933-4.04533 0-8.12666-.409467-12.244-1.228134l-.13066.654134.62266-.238c-.64266-1.6792-1.85466-3.838-3.64266-6.528134l-.55467.3692.448.4932 2.14933-1.956666-.44933-.4928-.18533.640133c2.904.842267 5.592 1.2688 8.05733 1.2688 7.01333.0063 12.75066-2.175067 17.03866-6.552133 4.30667-4.3796 6.43467-10.522933 6.43067-18.280133.003-8.369333-2.17333-14.778666-6.62-19.072399-4.44533-4.293334-11.05733-6.386534-19.71066-6.384934-2.11734.0011-6.20534.363067-12.34534 1.073467l-.38133.04427-.152.352c-.12267.289066-.19067.619866-.26533 1.083866-.24534 1.598934-.41867 4.703734-.53734 9.407333-.11733 4.6984-.17466 10.973467-.17466 18.828133v47.000532c.003 14.125463.436 23.296263 1.344 27.681193l.65333-.13586-.65467.12706c.18667.9744.62934 1.82294 1.31467 2.46768.68267.64688 1.58267 1.08438 2.656 1.34011l.0133.004.0147.003c.232.0427.62.0781 1.29467.13229 1.996.15626 6.25866.41095 12.80533.76563l.0373-.66563-.43867.5021 1.12134.9802.43866-.50208h-.66666v5.86458h.66666l-.43733-.50261-1.01867.88699.43867.5026.0253-.66615c-9.35599-.35572-20.53733-.53281-33.56266-.53333-14.66667.00052-25.16667.17708-31.52933.53385l.0373.66563.40933-.52604-1.02533-.79844-.40933.52604h.66666v-5.95312h-.66666l.43733.5026 1.124-.98072-.43867-.5021.0347.66563c3.44533-.17708 6.15733-.34011 8.14267-.48853 1.99466-.15106 3.22266-.2771 3.83333-.41407l.003-.00052.003-.001c1.07067-.25573 1.97067-.69323 2.65467-1.33959.684-.64433 1.13067-1.49113 1.32267-2.46406v.003.002c.90666-4.38493 1.34133-13.55573 1.344-27.681193v-47.001675c-.003-14.120799-.43734-23.292266-1.344-27.681199v.002.0021c-.192-.971333-.63867-1.8172-1.32267-2.462-.684-.6464-1.58267-1.085466-2.65467-1.341733l-.003-.0004-.003-.000533c-.612-.138134-1.848-.2636-3.85867-.414667-2.00133-.1484-4.73866-.311467-8.216-.489067l-.0333.6656.46-.481733-1.02533-.980133-.46.481733h.66666v-5.8641h-.66666l.412.523467 1.124-.8864-.41334-.523467-.0347.6656c6.704.355733 16.97066.5328 30.81333.5328 5.732 0 13.98-.08853 24.752-.2656 10.768-.1776 16.97733-.266133 18.60133-.266133 9.288-.0011 16.92533 1.026533 22.89333 3.052666 5.972 2.0276 10.26 5.035867 12.95334 9.003067l-.001-.0011v-.0016c2.78 4.145333 4.18134 9.153733 4.184 15.092266h.66667.66533c.003-6.145333-1.46133-11.445866-4.40933-15.835466l-.001-.0016v-.000933c-2.89334-4.262-7.46667-7.428133-13.62934-9.5172-6.16533-2.0912-13.93466-3.122933-23.32133-3.123467-1.652 0-7.84933.08853-18.62266.266134-10.76934.177066-19.012.2656-24.73067.2656-13.83067 0-24.084-.177067-30.74267-.530667l-.25066-.0136-.19734.155733-1.124.886534-.25333.200533v.3228 5.864133.284933l.20533.1968 1.02534.9808.17866.1708.248.01307c3.47067.177067 6.20134.339467 8.18534.486934 1.976.144799 3.24533.285466 3.65866.383866l-.004-.000533-.003-.000534c.90533.2172 1.57333.564 2.04933 1.0136.47467.452.78 1.0124.932 1.756134v.0021l.001.0021c.86534 4.145734 1.31867 13.3348 1.316 27.409866v47.000532c.003 14.080132-.45066 23.268662-1.316 27.409862l-.001.002v.002c-.152.74587-.45733 1.30627-.932 1.75734-.476.44946-1.144.79533-2.048 1.01249l.003-.001.003-.00052c-.41466.0984-1.67466.23907-3.63333.38385-1.968.1474-4.67333.3099-8.112.48698l-.23067.0115-.17333.15208-1.124.98022-.228.19948v.3026 5.95312.32604l.256.20053 1.02667.79791.196.15365.25066-.0141c6.30934-.35416 16.80134-.53177 31.45467-.53177 13.012 0 24.18.17708 33.512.53229l.264.01.19866-.17344 1.01867-.88646.228-.19948v-.30364-5.86458-.3026l-.228-.19948-1.12267-.98022-.172-.15104-.22933-.0125c-4.36266-.23646-7.71066-.42812-10.04266-.57604-1.16534-.0734-2.07734-.13646-2.732-.1875-.64667-.0495-1.072-.0958-1.14534-.11198l-.12666.65417.15466-.64792c-.90666-.21716-1.576-.56356-2.04933-1.01196-.472-.45053-.77467-1.00893-.92133-1.7532l-.001-.005-.001-.005c-.86667-4.14067-1.32-13.3292-1.316-27.409335v-46.999783c0-8.969333.076-15.873466.228-20.703199.0773-2.414533.17333-4.311333.28667-5.680133.0573-.6844.11866-1.236934.18266-1.6484.06-.407867.136-.690667.16934-.755734l-.612-.266133.0773.6624c6.11333-.709333 10.208-1.066133 12.19067-1.064533 8.45466.0016 14.67599 2.0396 18.78399 6.0104 4.10934 3.969733 6.20934 9.956266 6.21334 18.113599-.004 7.528533-2.03867 13.261466-6.04934 17.346266-4.02933 4.098534-9.33866 6.1464-16.08666 6.152667-2.31067 0-4.87733-.4016-7.68667-1.2156l-.35866-.104267-.276.251067-2.148 1.9568-.424.385466.31733.476534c1.75867 2.642133 2.932 4.7516 3.508 6.265066l.132.344267.36133.07187c4.2.834933 8.368 1.253733 12.504 1.253733 12.18933.0025 23.164-3.464133 32.852-10.383333 9.74133-6.939067 14.66-16.733333 14.64667-29.107333z" fill="#fff"/></g></svg>