<svg height="130.90668" viewBox="0 0 902.30664 130.90668" width="902.30664" xmlns="http://www.w3.org/2000/svg"><g transform="matrix(.13333333 0 0 -.13333333 0 130.90667)"><path d="m3038.16 27.7227-4.35 3.3789v39.9297l5.5 4.7421c24.97 1.3086 44.71 2.4532 59.3 3.5938 14.94 1.0781 24.12 2.0703 28.71 3.0586 8.1 1.8906 14.85 5.2226 19.98 10.082 5.13 4.7695 8.46 11.1602 9.9 18.4492 6.84 32.852 10.08 101.609 10.08 207.629v352.441c0 105.93-3.24 174.692-10.08 207.629-1.44 7.289-4.77 13.59-9.9 18.449-5.13 4.864-11.88 8.102-19.89 10.083h-.09c-4.59.988-13.86 1.98-28.98 3.058-14.59 1.145-34.5 2.285-59.73 3.598l-4.8 4.574v39.398l5.07 3.993c50.34-2.547 126.65-3.864 229.2-3.864 43.02 0 104.85.633 185.67 1.981 80.73 1.351 127.26 1.98 139.5 1.98 69.66 0 126.9-7.648 171.72-22.859 44.73-15.211 76.95-37.801 97.11-67.5 20.88-31.141 31.32-68.668 31.32-113.219-.09-90.18-35.01-159.66-105.66-210.152-71.01-50.668-151.02-75.957-240.57-76.047-29.46 0-59.18 2.894-89.15 8.75-4.67 11.414-12.63 25.582-23.86 42.742l10.9 9.926c20.73-5.789 39.98-8.77 57.65-8.77 52.65 0 95.67 16.289 127.8 49.141 32.31 32.848 48.24 78.93 48.24 137.07 0 62.821-16.29 110.879-49.68 143.098-33.3 32.223-82.89 47.883-147.78 47.883-15.93 0-46.53-2.703-92.61-8.012l-2.88-.359-1.08-2.7c-.99-2.16-1.44-4.589-1.98-8.101-1.89-11.969-3.15-35.281-4.05-70.559-.9-35.191-1.35-82.261-1.35-141.211v-352.441c0-106.02 3.33-174.777 10.08-207.629l4.95.988-4.95-.988c1.44-7.289 4.77-13.5898 9.9-18.4492s11.88-8.1914 19.89-10.082h.09.09c1.8-.3594 4.68-.6289 9.72-.9883 14.76-1.1562 46.23-3.1016 94.3-5.668l5.42-4.7226v-39.4453l-4.34-3.8243c-69.72 2.5625-152.96 3.8907-249.82 3.8907-108.52 0-186.63-1.3164-234.51-3.9453" fill="#bdbbbc"/><path d="m3034.89 17.5352-1.44 1.1718-7.74 6.0313-1.89 1.4375v2.5195 44.6406 2.25l1.71 1.4414 8.46 7.379 1.26 1.1718 1.71.0899c25.83 1.3476 46.08 2.5195 60.84 3.5976 14.76 1.0821 24.21 2.1602 27.27 2.8828 6.75 1.6172 11.79 4.2305 15.3 7.6485 3.6 3.3321 5.85 7.5581 7.02 13.1411 6.48 31.05 9.9 99.988 9.9 205.648v352.441c0 105.571-3.42 174.508-9.9 205.559v.09c-1.17 5.582-3.42 9.722-7.02 13.14-3.51 3.422-8.55 5.942-15.3 7.653v-.09c-3.06.809-12.6 1.797-27.45 2.879-14.85 1.168-35.37 2.34-61.38 3.687l-1.8.09-1.35 1.262-7.74 7.379-1.53 1.441v2.16 44.008 2.434l1.89 1.437 8.46 6.66 1.44 1.172 1.89-.09c49.95-2.613 126.81-3.96 230.58-3.96 42.93 0 104.67.628 185.49 1.98 80.82 1.348 127.26 1.98 139.68 1.98 70.38 0 128.61-7.742 174.87-23.402s80.55-39.418 102.24-71.367c22.14-32.941 33.12-72.723 33.12-118.801.09-92.793-36.81-166.23-109.89-218.34-72.63-51.84-154.98-77.851-246.42-77.851-30.96 0-62.28 3.148-93.78 9.449l-2.7.543-.99 2.519c-4.32 11.34-13.05 27.18-26.28 46.981l-2.34 3.598 3.15 2.878 16.11 14.672 2.07 1.891 2.7-.723c21.06-6.117 40.32-9.179 57.6-9.179 50.67.089 90.45 15.39 120.69 46.172 30.06 30.597 45.36 73.621 45.36 130.05 0 61.2-15.75 106.11-46.62 135.899-30.78 29.789-77.49 45.09-140.85 45.09-14.49 0-44.17-2.571-88.17-7.633-.2-.864-.4-1.903-.57-3.078-.45-3.059-.9-7.2-1.35-12.328-.81-10.262-1.53-24.481-2.16-42.661-1.08-36.179-1.71-87.929-1.71-155.25v-352.441c0-105.66 3.42-174.598 9.9-205.648 1.08-5.583 3.42-9.809 6.93-13.1411 3.46-3.375 8.42-5.9571 15.12-7.5821v.0235c.63-.1797 3.78-.4531 8.64-.9024 4.86-.3593 11.7-.8086 20.52-1.3476 17.46-1.1719 42.57-2.6094 75.24-4.3203l1.71-.0899 1.35-1.1718 8.37-7.379 1.71-1.4414v-2.25-44.0078-2.25l-1.71-1.5312-7.56-6.6602-1.53-1.2578h-1.98c-70.02 2.6992-153.72 4.0469-251.37 4.0469-109.89 0-188.55-1.3477-235.89-3.957zm-1.08 13.5664 4.35-3.3789c47.88 2.6289 125.99 3.9453 234.51 3.9453 96.86 0 180.1-1.3282 249.82-3.8907l4.34 3.8243v39.4453l-5.42 4.7226c-48.07 2.5664-79.54 4.5118-94.3 5.668-5.04.3594-7.92.6289-9.72.9883h-.09-.09c-8.01 1.8906-14.76 5.2226-19.89 10.082s-8.46 11.1602-9.9 18.4492l4.95.988-4.95-.988c-6.75 32.852-10.08 101.609-10.08 207.629v352.441c0 58.95.45 106.02 1.35 141.211.9 35.278 2.16 58.59 4.05 70.559.54 3.512.99 5.941 1.98 8.101l1.08 2.7 2.88.359c46.08 5.309 76.68 8.012 92.61 8.012 64.89 0 114.48-15.66 147.78-47.883 33.39-32.219 49.68-80.277 49.68-143.098 0-58.14-15.93-104.222-48.24-137.07-32.13-32.852-75.15-49.141-127.8-49.141-17.67 0-36.92 2.981-57.65 8.77l-10.9-9.926c11.23-17.16 19.19-31.328 23.86-42.742 29.97-5.856 59.69-8.75 89.15-8.75 89.55.09 169.56 25.379 240.57 76.047 70.65 50.492 105.57 119.972 105.66 210.152 0 44.551-10.44 82.078-31.32 113.219-20.16 29.699-52.38 52.289-97.11 67.5-44.82 15.211-102.06 22.859-171.72 22.859-12.24 0-58.77-.629-139.5-1.98-80.82-1.348-142.65-1.981-185.67-1.981-102.55 0-178.86 1.317-229.2 3.864l-5.07-3.993v-39.398l4.8-4.574c25.23-1.313 45.14-2.453 59.73-3.598 15.12-1.078 24.39-2.07 28.98-3.058h.09c8.01-1.981 14.76-5.219 19.89-10.083 5.13-4.859 8.46-11.16 9.9-18.449 6.84-32.937 10.08-101.699 10.08-207.629v-352.441c0-106.02-3.24-174.777-10.08-207.629-1.44-7.289-4.77-13.6797-9.9-18.4492-5.13-4.8594-11.88-8.1914-19.98-10.082-4.59-.9883-13.77-1.9805-28.71-3.0586-14.59-1.1406-34.33-2.2852-59.3-3.5938l-5.5-4.7421z" fill="#dedddd"/><path d="m3891.25 765.535c0-91.504-35.92-162.941-107.76-214.234-71.85-51.301-153.01-76.946-243.48-76.946-30.68 0-61.62 3.106-92.81 9.305-4.57 11.977-13.51 27.981-26.81 47.977l16.11 14.672c21.42-6.211 41.13-9.317 59.04-9.317 51.6 0 93.03 15.86 124.22 47.641 31.19 31.746 46.8 76.281 46.8 133.601 0 123.954-64.16 185.93-192.48 185.93-15.37 0-46.06-2.695-92.01-8.016-4.63-10.644-6.91-83.304-6.91-217.902v-352.504c0-105.769 3.32-174.617 9.98-206.59 2.5-12.89 11.18-21.1051 26.03-24.6481 4.59-.8906 39.63-3.1055 105.08-6.6523l8.41-7.3516v-43.9844l-7.63-6.6523c-70.08 2.664-153.89 3.9961-251.53 3.9961-109.95 0-188.67-1.3321-236.19-3.9961l-7.69 5.9883v44.6484l8.42 7.3516c51.63 2.6562 81.27 4.8828 88.96 6.6523 14.82 3.543 23.5 11.7581 26.09 24.6481 6.65 31.973 9.98 100.821 9.98 206.59v352.504c0 105.734-3.33 174.586-9.98 206.594-2.59 12.859-11.27 21.098-26.09 24.648-7.69 1.774-37.58 3.992-89.69 6.657l-7.69 7.351v43.981l8.42 6.648c50.12-2.66 127.06-3.988 230.84-3.988 42.94 0 104.78.664 185.56 1.992 80.78 1.332 127.31 1.996 139.59 1.996 140.06 0 231.09-30.891 272.99-92.609 21.48-32.008 32.23-70.664 32.23-115.981" fill="#231f20"/><path d="m3891.25 765.535h-5.01c-.1-90.199-35.05-159.621-105.65-210.168-71.06-50.703-151.05-75.992-240.58-76.012-30.34 0-60.95 3.071-91.83 9.211l-.98-4.906 4.67 1.785c-4.82 12.594-13.91 28.785-27.32 48.961l-4.16-2.769 3.36-3.699 16.12 14.675-3.37 3.696-1.39-4.801c21.78-6.317 41.94-9.516 60.43-9.516 52.6-.047 95.63 16.313 127.79 49.141 32.3 32.847 48.26 78.922 48.23 137.101.02 62.77-16.3 110.84-49.65 143.043-33.34 32.2-82.93 47.899-147.83 47.887-15.88-.008-46.54-2.723-92.59-8.051l-2.86-.332-1.14-2.64c-.92-2.168-1.43-4.649-1.99-8.129-1.84-11.992-3.14-35.278-4.03-70.555-.88-35.238-1.31-82.301-1.31-141.211v-352.504c.02-105.941 3.27-174.722 10.08-207.609l4.9 1.019-4.91-.953c1.4-7.308 4.72-13.672 9.86-18.5076 5.12-4.8516 11.87-8.1328 19.92-10.0508l.1-.0273.11-.0195c1.74-.3204 4.65-.586 9.71-.9922 14.97-1.1719 46.94-3.0821 96.04-5.7422l.28 4.9922-3.29-3.7657 8.41-7.3515 3.29 3.7656h-5v-43.9844h5l-3.28 3.7696-7.64-6.6524 3.29-3.7695.19 4.9961c-70.17 2.6679-154.03 3.9961-251.72 4-110-.0039-188.75-1.3281-236.47-4.0039l.28-4.9922 3.07 3.9453-7.69 5.9883-3.07-3.9453h5v44.6484h-5l3.28-3.7695 8.43 7.3554-3.29 3.7657.26-4.9922c25.84 1.3281 46.18 2.5508 61.07 3.664 14.96 1.1329 24.17 2.0782 28.75 3.1055l.02.0039.02.0078c8.03 1.918 14.78 5.1992 19.91 10.0469 5.13 4.8325 8.48 11.1835 9.92 18.4805v-.02-.015c6.8 32.887 10.06 101.668 10.08 207.609v352.504c-.02 105.906-3.28 174.692-10.08 207.609v-.015-.016c-1.44 7.285-4.79 13.629-9.92 18.465-5.13 4.848-11.87 8.141-19.91 10.063l-.02.003-.02.004c-4.59 1.036-13.86 1.977-28.94 3.11-15.01 1.113-35.54 2.336-61.62 3.668l-.25-4.992 3.45 3.613-7.69 7.351-3.45-3.613h5v43.981h-5l3.09-3.926 8.43 6.648-3.1 3.926-.26-4.992c50.28-2.668 127.28-3.996 231.1-3.996 42.99 0 104.85.664 185.64 1.992 80.76 1.332 127.33 1.996 139.51 1.996 69.66.008 126.94-7.699 171.7-22.895 44.79-15.207 76.95-37.769 97.15-67.523l-.01.008v.012c20.85-31.09 31.36-68.653 31.38-113.192h5 4.99c.02 46.09-10.96 85.844-33.07 118.766l-.01.012v.007c-21.7 31.965-56 55.711-102.22 71.379-46.24 15.684-104.51 23.422-174.91 23.426-12.39 0-58.87-.664-139.67-1.996-80.77-1.328-142.59-1.992-185.48-1.992-103.73 0-180.63 1.328-230.57 3.98l-1.88.102-1.48-1.168-8.43-6.649-1.9-1.504v-2.421-43.981-2.137l1.54-1.476 7.69-7.356 1.34-1.281 1.86-.098c26.03-1.328 46.51-2.546 61.39-3.652 14.82-1.086 24.34-2.141 27.44-2.879l-.03.004-.02.004c6.79-1.629 11.8-4.23 15.37-7.602 3.56-3.39 5.85-7.593 6.99-13.171v-.016l.01-.016c6.49-31.093 9.89-100.011 9.87-205.574v-352.504c.02-105.601-3.38-174.515-9.87-205.574l-.01-.016v-.015c-1.14-5.594-3.43-9.797-6.99-13.18-3.57-3.371-8.58-5.965-15.36-7.5937l.02.0078.02.0039c-3.11-.7383-12.56-1.793-27.25-2.8789-14.76-1.1055-35.05-2.3242-60.84-3.6523l-1.73-.086-1.3-1.1406-8.43-7.3516-1.71-1.4961v-2.2695-44.6484-2.4453l1.92-1.504 7.7-5.9843 1.47-1.1524 1.88.1055c47.32 2.6562 126.01 3.9883 235.91 3.9883 97.59 0 181.35-1.3281 251.34-3.9922l1.98-.0742 1.49 1.3008 7.64 6.6484 1.71 1.4961v2.2773 43.9844 2.2695l-1.71 1.4961-8.42 7.3516-1.29 1.1328-1.72.0938c-32.72 1.7734-57.83 3.2109-75.32 4.3203-8.74.5507-15.58 1.0234-20.49 1.4062-4.85.3711-8.04.7188-8.59.8399l-.95-4.9063 1.16 4.8594c-6.8 1.6287-11.82 4.2267-15.37 7.5897-3.54 3.379-5.81 7.567-6.91 13.149l-.01.035-.01.035c-6.5 31.055-9.9 99.969-9.87 205.57v352.504c0 67.27.57 119.051 1.71 155.274.58 18.109 1.3 32.335 2.15 42.601.43 5.133.89 9.277 1.37 12.363.45 3.059 1.02 5.18 1.27 5.668l-4.59 1.996.58-4.968c45.85 5.32 76.56 7.996 91.43 7.984 63.41-.012 110.07-15.297 140.88-45.078 30.82-29.773 46.57-74.672 46.6-135.852-.03-56.464-15.29-99.461-45.37-130.097-30.22-30.739-70.04-46.098-120.65-46.145-17.33 0-36.58 3.012-57.65 9.117l-2.69.782-2.07-1.883-16.11-14.676-3.18-2.891 2.38-3.574c13.19-19.816 21.99-35.637 26.31-46.988l.99-2.582 2.71-.539c31.5-6.262 62.76-9.403 93.78-9.403 91.42-.019 173.73 25.981 246.39 77.875 73.06 52.043 109.95 125.5 109.85 218.305z" fill="#fff"/><path d="m4545.17 28.0273c-79.39 1.8555-127.31 2.8282-143.99 2.8282-66.02 0-127.39-.9649-184.2-2.8086l-1.92 1.8125v25.6054l2.47 2.3907 45.59 2.3398c10.44.4531 18.63 2.25 24.84 6.0313 3.06 1.8906 5.67 4.3203 7.38 7.3789 1.71 2.9726 2.52 6.4804 2.52 9.9922-.09 4.5-1.53 10.0781-4.14 17.7303-2.61 7.649-6.39 17.188-11.52 28.801l-44.1 99.898-1.35 2.969h-3.24c-50.13.633-101.34.992-153.63.992-28.35 0-70.47-.359-126.36-.992h-3.24l-1.26-3.058-24.03-57.782c-9.09-21.961-15.93-39.871-20.52-53.82s-7.02-23.668-7.02-30.418c-.09-7.1992 2.79-13.7696 8.19-18.1797 5.31-4.5 12.6-6.9297 21.69-8.1016 9.6-1.3203 27.58-2.5586 54.26-3.789l2.35-2.0782v-25.7656l-2.27-1.9687c-66 1.8515-108.53 2.8203-127.78 2.8203-14.88 0-51.09-.9688-108.82-2.8203l-2.15 1.6953v25.9023l2.87 2.2266c18.16 1.0195 33.03 3.0664 44.74 6.3867 11.97 3.4219 20.88 8.0117 26.19 14.8516 2.61 3.4179 6.12 9.6289 11.34 19.3476 15.3 28.9807 43.74 88.6527 85.41 179.1017l142.11 309.238.09.094c10.31 23.441 25.81 58.637 46.56 105.387h70.9l287.27-587.61v-.09c5.76-11.4293 11.25-20.4293 16.65-27.1793 5.49-6.6601 10.8-11.25 16.83-13.2304 12.46-3.9219 29.31-5.7305 51.11-5.9258l2.08-2.1875v-26.1485zm-455.03 514.5707-4.41-9.903-111.69-248.129-3.06-6.839 7.47-.18c29.88-.988 68.58-1.442 116.19-1.442 46.08 0 83.61.454 112.32 1.442l7.56.18-3.15 6.929-4.59-2.16 4.59 2.16-116.55 248.039z" fill="#bdbbbc"/><path d="m4212.99 17.8984-1.53 1.5274-4.86 4.7695-1.53 1.4414v2.1602 29.789 2.1602l1.53 1.4414 5.49 5.2188 1.35 1.2617 1.8.0898 47.43 2.3399c7.11.3593 12.69 1.4375 16.65 2.9687 3.96 1.5313 6.12 3.4219 7.29 5.4922.81 1.3477 1.26 2.9687 1.26 5.0391 0 2.1601-1.08 7.289-3.6 14.4882-2.43 7.1991-6.21 16.5621-11.25 27.9921l-42.81 96.969c-49.1.605-99.15.949-150.33.949-27.71 0-68.77-.344-122.97-.953l-22.65-54.664c-9.09-21.871-15.84-39.602-20.34-53.191-4.41-13.5-6.57-23.0396-6.48-27.27 0-4.8594 1.44-7.8321 4.59-10.5313s8.64-4.8594 16.65-5.8515c9-1.2579 27.54-2.5196 55.08-3.7774l1.71-.0898 1.35-1.0821 5.4-4.7695 1.71-1.4375v-2.3437-30.2383-2.3399l-1.71-1.4414-5.4-4.7695-1.53-1.2578h-1.89c-67.14 1.8906-110.34 2.8789-129.51 2.8789-14.67 0-51.57-.9883-110.34-2.8789h-1.8l-1.44 1.0781-5.49 4.2305-1.89 1.5312v2.4297 30.7774 2.4336l1.89 1.5273 6.03 4.6797 1.26.9922 1.53.0898c18.45.9883 33.3 3.0586 44.19 6.1211 10.98 3.0586 17.82 7.1992 20.97 11.3399 1.71 2.1601 5.4 8.3671 10.35 17.8162 5.04 9.543 11.61 22.594 19.62 38.973 15.93 32.847 37.89 79.469 65.61 139.769l142.11 309.149.03-.016c10.53 24.031 26.45 60.188 47.94 108.375l1.26 2.973h3.24 77.31 3.15l1.35-2.789 288.59-590.418.04.015c5.49-10.9801 10.71-19.5308 15.48-25.3785 4.68-5.9414 9-9.0898 12.06-9.9922 10.83-3.4336 27.25-5.4023 48.77-5.4023.48 0 .97.0039 1.45.0039h2.16l1.44-1.6211 4.95-5.2188 1.35-1.4414v-1.9804-30.2383-2.1602l-1.53-1.4414-4.86-4.7695-1.53-1.4375h-2.07c-80.64 1.8906-129.33 2.8789-145.89 2.8789-66.69 0-128.79-.9883-186.03-2.8789zm188.19 12.9571c16.68 0 64.6-.9727 143.99-2.8282l1.9 1.8672v26.1485l-2.08 2.1875c-21.8.1953-38.65 2.0039-51.11 5.9258-6.03 1.9804-11.34 6.5703-16.83 13.2304-5.4 6.75-10.89 15.75-16.65 27.1793v.09l-287.27 587.61h-70.9c-20.75-46.75-36.25-81.946-46.56-105.387l-.09-.094-142.11-309.238c-41.67-90.449-70.11-150.121-85.41-179.1017-5.22-9.7187-8.73-15.9297-11.34-19.3476-5.31-6.8399-14.22-11.4297-26.19-14.8516-11.71-3.3203-26.58-5.3672-44.74-6.3867l-2.87-2.2266v-25.9023l2.15-1.6953c57.73 1.8515 93.94 2.8203 108.82 2.8203 19.25 0 61.78-.9688 127.78-2.8203l2.27 1.9687v25.7656l-2.35 2.0782c-26.68 1.2304-44.66 2.4687-54.26 3.789-9.09 1.1719-16.38 3.6016-21.69 8.1016-5.4 4.4101-8.28 10.9805-8.19 18.1797 0 6.75 2.43 16.469 7.02 30.418s11.43 31.859 20.52 53.82l24.03 57.782 1.26 3.058h3.24c55.89.633 98.01.992 126.36.992 52.29 0 103.5-.359 153.63-.992h3.24l1.35-2.969 44.1-99.898c5.13-11.613 8.91-21.152 11.52-28.801 2.61-7.6522 4.05-13.2303 4.14-17.7303 0-3.5118-.81-7.0196-2.52-9.9922-1.71-3.0586-4.32-5.4883-7.38-7.3789-6.21-3.7813-14.4-5.5782-24.84-6.0313l-45.59-2.3398-2.47-2.3907v-25.6054l1.92-1.8125c56.81 1.8437 118.18 2.8086 184.2 2.8086m-306.54 245.2495c-47.61 0-86.31.454-116.19 1.442l-7.47.18 3.06 6.839 111.69 248.129 4.41 9.903 4.68-9.903 116.55-248.039-4.59-2.16 4.59 2.16 3.15-6.929-7.56-.18c-28.71-.988-66.24-1.442-112.32-1.442m-108.33 11.2c28.61-.828 64.71-1.207 108.33-1.207 42.1 0 76.91.375 104.37 1.195l-108.66 231.332z" fill="#dedddd"/><path d="m4199.6 289.695-116.54 248.114-111.62-248.114c29.77-.965 68.42-1.422 115.98-1.422 46.11 0 83.51.457 112.18 1.422zm345.24-254.7458-4.88-4.7539c-80.61 1.9063-129.26 2.8516-145.96 2.8516-66.8 0-128.87-.9453-186.23-2.8516l-4.9 4.7539v29.8281l5.45 5.2032 47.38 2.3633c19.94.9492 29.94 7.0976 29.94 18.4687 0 6.6094-5.08 21.4535-15.23 44.5075l-44.13 99.914c-50.11.633-101.28.95-153.57.95-28.3 0-70.41-.317-126.31-.95l-23.98-57.761c-18.15-43.887-27.21-71.348-27.21-82.3949 0-12.0117 8.52-19.1093 25.59-21.3086 9.43-1.2695 27.95-2.5312 55.52-3.789l5.45-4.7266v-30.3047l-5.45-4.7539c-67.15 1.9063-110.35 2.8516-129.59 2.8516-14.88 0-51.73-.9453-110.52-2.8516l-5.47 4.2695v30.7891l5.99 4.7266c37.39 1.8828 60.34 8.3593 68.87 19.4062 8.54 11.0543 40.59 76.8753 96.13 197.4613l142.13 309.207c10.53 23.984 26.49 60.129 47.93 108.433h77.31l288.61-590.472c11.25-22.4144 21.41-35.0316 30.49-37.8832 11.99-3.7969 29.22-5.6836 51.76-5.6836l4.88-5.1953z" fill="#231f20"/><path d="m4199.6 289.695 4.53 2.129-116.54 248.11-4.63 9.843-4.46-9.918-111.62-248.109-3.06-6.809 7.46-.242c29.85-.969 68.55-1.426 116.14-1.426 46.14 0 83.59.457 112.35 1.426l7.59.254-3.23 6.871-4.53-2.129-.16 5c-28.58-.965-65.94-1.422-112.02-1.422-47.53 0-86.14.457-115.82 1.422l-.16-5 4.56-2.05 111.62 248.113-4.56 2.051-4.52-2.125 116.54-248.114 4.52 2.125-.16 5zm345.24-254.7458-3.49 3.5821-4.88-4.754 3.49-3.582.11 5c-80.63 1.9024-129.24 2.8516-146.07 2.8516-66.85 0-128.97-.9492-186.4-2.8555l.17-4.9961 3.48 3.5899-4.9 4.7539-3.48-3.5899h5v29.8281h-5l3.45-3.6171 5.45 5.2031-3.45 3.6172.24-4.9922 47.39 2.3633c10.42.5195 18.63 2.289 24.82 6.0625 3.08 1.8906 5.63 4.3632 7.34 7.3711 1.72 3.0039 2.54 6.457 2.53 10.0273-.05 4.5-1.48 10.0235-4.08 17.7075-2.61 7.628-6.47 17.207-11.58 28.82l-44.12 99.914-1.3 2.941-3.21.039c-50.14.633-101.34.95-153.64.95-28.34 0-70.46-.317-126.37-.95l-3.29-.039-1.27-3.043-23.98-57.765v-.004c-9.1-22.016-15.94-39.938-20.54-53.856-4.58-13.984-7-23.679-7.05-30.4489-.08-7.1679 2.79-13.7695 8.19-18.1758 5.37-4.4375 12.67-6.9062 21.76-8.0898 9.77-1.3125 28.28-2.5586 55.93-3.8281l.23 4.9961-3.27-3.7774 5.45-4.7265 3.27 3.7773h-5v-30.3047h5l-3.29 3.7696-5.44-4.754 3.28-3.7695.14 4.9961c-67.17 1.9063-110.35 2.8555-129.73 2.8555-15.04 0-51.87-.9492-110.69-2.8555l.17-4.9961 3.07 3.9414-5.47 4.2696-3.07-3.9415h5v30.7891h-5l3.09-3.9258 6 4.7266-3.1 3.9258.26-4.9922c18.93.957 34.32 3.0625 46.35 6.4453 12 3.4141 20.84 8.0312 26.22 14.8945 2.58 3.3789 6.12 9.5547 11.27 19.2809 15.33 29.039 43.76 88.664 85.44 179.145l142.14 309.215.01.039.02.039c10.52 23.973 26.48 60.109 47.92 108.414l-4.57 2.027v-5h77.31v5l-4.5-2.195 288.62-590.477.01-.019.01-.027c5.73-11.411 11.22-20.4302 16.63-27.1684 5.43-6.6993 10.77-11.2891 16.83-13.2383 12.83-4.0469 30.43-5.8985 53.26-5.9141v5l-3.65-3.4258 4.89-5.1953 3.64 3.4258h-5v-30.3047h5l-3.49 3.5821 3.49-3.5821h5v30.3047 1.9805l-1.36 1.4453-4.88 5.1953-1.48 1.5742h-2.16c-22.26-.0117-39.11 1.9024-50.25 5.4492-3.04.9063-7.32 4.0508-12.05 9.9727-4.74 5.8906-9.96 14.3829-15.48 25.3869l-4.47-2.242 4.49 2.195-288.61 590.473-1.37 2.804h-3.12-77.31-3.25l-1.32-2.972c-21.45-48.309-37.4-84.457-47.94-108.453l4.58-2.008-4.54 2.09-142.13-309.211c-27.76-60.27-49.65-106.848-65.65-139.704-7.99-16.425-14.52-29.421-19.55-38.953-4.99-9.488-8.66-15.6872-10.35-17.8356-3.16-4.1797-10.06-8.3242-21.01-11.3828-10.92-3.082-25.7-5.1602-44.15-6.0859l-1.59-.0782-1.25-.9882-6-4.7266-1.9-1.5v-2.4258-30.7891-2.4414l1.92-1.5039 5.47-4.2656 1.43-1.1133 1.81.0586c58.76 1.9024 95.65 2.8477 110.36 2.8477 19.11 0 62.33-.9453 129.45-2.8516l1.96-.0547 1.47 1.2891 5.45 4.7539 1.71 1.4961v2.2695 30.3047 2.2813l-1.72 1.4961-5.45 4.7265-1.31 1.1367-1.74.0821c-27.5 1.25-46.02 2.5234-55.09 3.75-8.01 1.0156-13.5 3.1953-16.66 5.8593-3.12 2.6954-4.51 5.6485-4.59 10.4922-.05 4.2774 2.06 13.8359 6.55 27.3129 4.47 13.547 11.23 31.297 20.28 53.172v-.004l-.01-.004 23.99 57.761-4.62 1.918.06-5c55.89.633 97.98.95 126.25.95 52.26 0 103.42-.317 153.51-.95l.06 5-4.57-2.019 44.12-99.91c5.04-11.442 8.8-20.817 11.27-28.024 2.48-7.156 3.59-12.3591 3.54-14.4685-.01-2.1172-.44-3.6953-1.22-5.0742-1.16-2.0274-3.33-3.9141-7.3-5.4727-3.94-1.539-9.54-2.5937-16.66-2.9258l-47.39-2.3671-1.86-.0899-1.35-1.2851-5.45-5.2071-1.54-1.4765v-2.1368-29.8281-2.1133l1.51-1.4726 4.91-4.7578 1.52-1.4766 2.12.0703c57.3 1.9024 119.32 2.8477 186.07 2.8477 16.56 0 65.26-.9453 145.84-2.8516l2.1-.0469 1.5 1.4649 4.89 4.7578 1.51 1.4687v2.1094h-5" fill="#fff"/><path d="m4980.78 9.97656c-94.23 0-173.34 14.76174-237.24 44.10154-63.99 29.25-112.95 72.9879-147.24 131.4879-31.95 54.18-47.79 112.77-47.79 176.039.09 102.243 38.79 182.883 116.73 243.633 79.83 62.547 189.18 94.141 328.59 94.141 87.96 0 173.95-13.824 258.08-41.457l4.2-4.254c-11.82-42.965-19.26-92.676-22.15-149.285l-1.96-1.926h-28.12l-2.57 2.406c-1.09 37.239-3.05 63.121-5.97 78.325l-.27 1.531-1.17 1.078c-46.53 45.629-113.58 68.219-200.07 68.219-89.1 0-159.75-24.661-210.96-74.34-51.21-49.68-76.68-117.27-76.68-201.508-.09-114.031 45.54-202.59 136.17-263.699 48.69-32.9417 113.4-49.1409 193.95-49.1409 72.35 0 143.11 16.0196 212.13 47.9809l8.02-6.426-22.42-43.2228c-75.46-35.7579-159.88-53.68364-253.26-53.68364" fill="#bdbbbc"/><path d="m4980.78-.0117188c-95.31 0-175.77 14.9375188-241.47 45.0000188-65.61 29.9687-116.28 75.3277-151.65 135.5387-32.76 55.621-49.23 116.102-49.14 181.078-.09 104.762 40.32 189.18 120.6 251.551 82.08 64.352 193.86 96.211 334.71 96.211 89.46 0 176.94-14.129 262.35-42.39l1.17-.36.81-.808 7.11-7.114 2.07-2.066-.81-2.883c-12.15-43.109-19.8-93.687-22.68-151.828l-.09-1.98-1.44-1.352-4.86-4.77-1.44-1.347h-2.07-32.13-1.98l-1.44 1.347-5.49 5.219-1.44 1.442-.09 2.07c-1.04 36.695-2.92 62.598-5.55 77.156-44.15 42.613-107.8 64.235-192 64.235-87.39 0-154.98-23.942-204.03-71.461-48.96-47.61-73.53-111.961-73.62-194.309.18-111.422 43.74-195.84 131.76-255.422 46.44-31.4101 109.17-47.4296 188.37-47.4296 71.82 0 142.02 16.1094 210.78 48.3316l2.79 1.348 2.43-1.98 13.68-10.887-3.15-3.871 3.15 3.871 3.15-2.613-1.89-3.598-25.02-48.2422-.81-1.5274-1.44-.7226c-77.4-36.9883-163.8-55.4375188-259.2-55.4375188m13.05 699.3907188c-139.41 0-248.76-31.594-328.59-94.141-77.94-60.75-116.64-141.39-116.73-243.633 0-63.269 15.84-121.859 47.79-176.039 34.29-58.5 83.25-102.2379 147.24-131.4879 63.9-29.3398 143.01-44.10154 237.24-44.10154 93.38 0 177.8 17.92574 253.26 53.68364l22.42 43.2228-8.02 6.426c-69.02-31.9613-139.78-47.9809-212.13-47.9809-80.55 0-145.26 16.1992-193.95 49.1409-90.63 61.109-136.26 149.668-136.17 263.699 0 84.238 25.47 151.828 76.68 201.508 51.21 49.679 121.86 74.34 210.96 74.34 86.49 0 153.54-22.59 200.07-68.219l1.17-1.078.27-1.531c2.92-15.204 4.88-41.086 5.97-78.325l2.57-2.406h28.12l1.96 1.926c2.89 56.609 10.33 106.32 22.15 149.285l-4.2 4.254c-84.13 27.633-170.12 41.457-258.08 41.457" fill="#dedddd"/><path d="m5255.62 115.422-25.04-48.2814c-76.6-36.6328-162.26-54.9453-257.03-54.9453-189.49 0-319.08 59.336-388.79 178.0467-32.32 54.914-48.48 114.438-48.48 178.52 0 103.543 39.57 186.082 118.72 247.656 80.95 63.437 191.5 95.164 331.64 95.164 88.92 0 175.87-14.043 260.82-42.133l7.09-7.113c-12.35-43.57-19.98-94.559-22.88-152.949l-4.9-4.731h-32.13l-5.45 5.207c-1.09 38.2-3.08 64.715-5.97 79.555-45.39 44.5-110.92 66.766-196.58 66.766-88.23 0-157.39-24.321-207.48-72.918-50.12-48.618-75.16-114.582-75.16-197.922 0-112.707 44.65-199.199 133.96-259.504 47.56-32.2072 111.27-48.3009 191.14-48.3009 72.59 0 143.57 16.2617 212.93 48.7889z" fill="#231f20"/><path d="m5255.62 115.422-4.44 2.301-25.04-48.2816 4.44-2.3008-2.16 4.5078c-75.87-36.2773-160.74-54.4453-254.87-54.4531-94.23 0-173.28 14.7656-237.23 44.0547-63.96 29.3086-112.88 73.035-147.25 131.527-31.88 54.188-47.78 112.743-47.79 175.985.09 102.273 38.79 182.914 116.79 243.707v.008l.01.003c79.82 62.547 189.14 94.094 328.56 94.102 88.39 0 174.8-13.953 259.25-41.883l1.57 4.75-3.55-3.531 7.09-7.113 3.55 3.531-4.81 1.359c-12.48-44.031-20.15-95.379-23.06-154.062l4.99-.246-3.47 3.597-4.9-4.726 3.47-3.602v5h-32.13v-5l3.46 3.617-5.45 5.207-3.46-3.617 5 .145c-1.11 38.332-3.07 64.914-6.06 80.367l-.3 1.527-1.11 1.086c-46.56 45.657-113.61 68.219-200.08 68.196-89.1.031-159.79-24.653-210.97-74.329-51.2-49.621-76.72-117.21-76.67-201.511-.12-114.02 45.56-202.614 136.17-263.649 48.66-32.9411 113.42-49.1559 193.93-49.1559 73.34-.0039 145.09 16.4453 215.05 49.2619l-2.12 4.527-3.13-3.898 13.59-10.91 3.13 3.902-4.44 2.301 4.44-2.301 3.13 3.898-13.59 10.907-2.44 1.953-2.82-1.325c-68.75-32.2417-138.96-48.312-210.8-48.3159-79.22 0-141.88 15.9726-188.33 47.4409-88.04 59.575-131.65 143.969-131.77 255.364.05 82.375 24.61 146.719 73.64 194.336 49.01 47.519 116.65 71.468 204 71.504 84.85-.028 148.86-21.996 193.08-65.336l3.5 3.57-4.91-.953c2.78-14.227 4.81-40.684 5.89-78.746l.06-2.051 1.48-1.422 5.45-5.203 1.45-1.387h2 32.13 2.02l1.45 1.403 4.9 4.726 1.43 1.375.1 1.977c2.87 58.105 10.47 108.73 22.69 151.836l.8 2.816-2.07 2.074-7.09 7.114-.84.843-1.13.375c-85.44 28.254-172.94 42.391-262.39 42.387-140.86.008-252.63-31.902-334.73-96.23l.01.003v.008c-80.28-62.351-120.73-146.789-120.64-251.601-.01-64.922 16.41-125.414 49.17-181.055 35.34-60.219 86.06-105.5117 151.7-135.5507 65.65-30.0547 146.14-44.95708 241.4-44.96099 95.4-.0039 181.86 18.44919 259.19 55.43359l1.51.7227.77 1.4843 25.04 48.2811 1.89 3.641-3.2 2.562-3.13-3.898" fill="#fff"/><path d="m5921.67 27.8086-394.05 2.7773c-64.49 0-110.5-.8554-138.2-2.7304l-2.2 1.9414v9.8984l1.56 3.1758c12.75 7.0352 22.73 12.9023 29.94 17.5078 3.69 2.3399 6.66 4.4063 8.91 6.207 2.34 1.8008 3.87 3.1524 5.22 5.3125v.0899c1.26 2.3398 2.07 5.1289 2.79 8.7305 2.07 10.7968 3.33 29.4292 3.87 56.5192v.09l1.62 106.02v.09 240.031c0 75.328-2.34 124.199-7.2 147.867v-.09c-1.08 5.402-3.6 10.262-7.47 13.859-3.87 3.692-8.82 6.122-14.76 7.563-3.51.809-10.08 1.437-20.79 2.25-10.36.781-24.35 1.652-42.04 2.523l-2.51 2.137v27.449l2.04 1.637c36.85-1.828 92.93-2.785 168.33-2.785 68.13 0 197.32.984 387.81 2.863l2.09-1.308-6.59-49.348v-.09c-2.25-16.738-3.87-31.051-4.95-42.75v-.09l-3.62-42.14-2.68-2.5h-27.71l-2.28 2.019c-.22 20.473-1.02 36.75-2.5 48.832-.72 6.301-1.62 11.43-2.79 15.66-1.17 4.141-2.43 7.379-4.68 9.989-2.25 2.25-4.77 3.332-8.1 4.5-9.81 3.242-27.36 5.582-53.82 7.562-35.19 2.52-65.97 3.777-92.7 3.777-31.68 0-63.72-1.078-96.12-3.328l-4.14-.269-.54-4.141c-4.05-33.48-6.03-79.558-6.03-138.332v-98.008-4.769l4.77-.27c28.71-1.531 52.02-2.34 69.93-2.34l71.46.45c16.74.179 29.97.808 39.69 2.07 4.95.629 8.91 1.348 12.24 2.25 3.33 1.078 5.94 2.07 8.19 4.23l-.05.043c2.32 2.336 3.84 5.289 5.18 9.047 3.86 10.871 6.18 29.27 7.63 56.012l2.45 2.129h29.97l2.25-1.949c-1.38-34.52-2.07-66.129-2.07-94.895 0-31.219.69-65.285 2.06-102.262l-2.03-1.597h-32.96l-2.27 2.008c-.05 17.203-.77 31.043-2.24 41.734-1.62 11.16-3.51 18.719-7.65 23.848-4.32 4.769-10.89 7.652-20.16 10.082-9.27 2.34-21.24 4.05-36.09 5.129-22.32 1.621-46.08 2.429-71.19 2.429-26.64 0-51.39-.808-74.43-2.429l-4.68-.27v-4.68-144.449c0-41.402.99-81.633 2.79-120.5116l.18-4.7695h4.77 74.07c53.01 0 95.85.8984 128.52 2.6992 32.67 1.8906 54.99 4.5 67.86 8.4609h.09c4.5 1.4414 8.37 3.5118 11.07 6.75 2.43 2.9688 4.32 6.8399 6.12 11.879 1.8 5.043 3.51 11.25 5.22 18.633l12.7 57.199 2.98 2.828h29.43l2.34-1.855c-7.64-45.153-11.43-95.6762-11.54-151.8168l-2.31-2.0156" fill="#bdbbbc"/><path d="m5385.96 17.6289-1.62 1.3477-5.4 4.7695-1.71 1.5312v2.25 13.2305 1.168l.45.9922 2.79 5.6679.63 1.4414 1.44.8086c19.44 10.711 32.4 18.543 38.34 23.1329 1.76 1.3593 2.95 2.5078 3.26 2.871l-.02.0079.09.0898c.38.7969 1.04 2.8477 1.62 5.668.54 3.1523 1.17 7.3828 1.62 12.5117.99 10.2618 1.71 24.3908 2.07 42.3908v-.09l1.62 106.109v239.942c0 74.969-2.43 124.019-7.02 145.797-.72 3.781-2.16 6.39-4.5 8.64-2.34 2.16-5.58 3.871-10.26 5.039v.02c-2.08.453-8.87 1.254-19.17 1.961-10.62.812-25.11 1.711-43.65 2.609l-1.71.094-1.26 1.168-5.49 4.68-1.71 1.531v2.25 32.219 2.429l1.89 1.532 5.49 4.23 1.44 1.168 1.89-.09c36.45-1.891 93.06-2.879 169.65-2.879 68.22 0 198 .988 389.25 2.879h1.53l1.26-.808 5.94-3.782 2.7-1.711-.36-3.148-7.11-52.559c-2.16-16.652-3.78-30.871-4.86-42.39l-3.78-44.012-.18-1.891-1.35-1.347-5.49-5.219-1.44-1.352h-1.98-31.59-1.89l-1.44 1.258-5.4 4.684-1.71 1.527v2.25c-.27 31.949-2.07 53.731-4.95 64.082-.9 3.508-2.07 5.578-2.52 5.938l-.18.179-.63.364c-.72.359-1.71.808-2.97 1.257-2.61.813-6.3 1.711-10.98 2.61-9.54 1.621-23.04 3.152-40.41 4.41-35.01 2.519-65.61 3.781-91.98 3.781-30.04 0-60.5-.992-91.29-3.047-3.65-32.511-5.55-76.851-5.55-133.035v-93.305c26.47-1.371 48.04-2.093 64.71-2.093l71.37.449c24.75.18 41.58 1.711 49.23 3.961 2.52.719 3.87 1.621 3.87 1.621v.09c.63.539 1.8 2.34 2.79 5.308 1.08 2.969 2.16 7.11 3.06 12.243 1.8 10.347 3.24 24.75 4.14 43.019l.09 2.16 1.62 1.438 5.4 4.679 1.44 1.262h1.89 33.75 1.89l1.35-1.262 5.49-4.679 1.8-1.617-.09-2.43c-1.44-35.281-2.16-67.594-2.16-96.844 0-31.769.72-66.597 2.16-104.398l.09-2.61-1.98-1.531-5.49-4.32-1.35-.988h-1.71-36.54-1.8l-1.44 1.167-5.4 4.774-1.8 1.437v2.34c.09 18-.72 32.313-2.07 42.66-1.35 10.442-3.78 17.012-5.4 18.719-1.53 1.981-6.66 4.774-15.03 6.844-8.28 2.156-19.8 3.777-34.29 4.859-22.05 1.617-45.54 2.34-70.47 2.34-24.69 0-47.72-.629-69.12-2.027v-139.723c0-39.621.91-77.996 2.58-115.2928h69.24c52.92 0 95.58.9023 127.98 2.7031 32.23 1.793 54.34 4.5742 65.44 7.9844l-.01.0234c3.42 1.082 5.49 2.4297 6.39 3.6016 1.26 1.4373 2.88 4.5003 4.5 8.9103 1.62 4.5 3.24 10.258 4.86 17.461v-.09l13.05 58.769.36 1.438 1.08 1.082 5.4 5.219 1.44 1.351h1.98 33.3 1.71l1.35-1.082 6.03-4.679-3.15-3.961 3.15 3.961 2.34-1.891-.54-2.879c-7.92-45.809-11.88-97.5586-11.88-155.4297v-2.25l-1.71-1.5312-5.49-4.7695-1.44-1.2578-1.89.0898-395.82 2.7891c-66.06 0-112.68-.9024-139.59-2.7891zm141.66 12.957 394.05-2.7773 2.31 2.0156c.11 56.1406 3.9 106.6638 11.54 151.8168l-2.34 1.855h-29.43l-2.98-2.828-12.7-57.199c-1.71-7.383-3.42-13.59-5.22-18.633-1.8-5.0391-3.69-8.9102-6.12-11.879-2.7-3.2382-6.57-5.3086-11.07-6.75h-.09c-12.87-3.9609-35.19-6.5703-67.86-8.4609-32.67-1.8008-75.51-2.6992-128.52-2.6992h-74.07-4.77l-.18 4.7695c-1.8 38.8786-2.79 79.1096-2.79 120.5116v144.449 4.68l4.68.27c23.04 1.621 47.79 2.429 74.43 2.429 25.11 0 48.87-.808 71.19-2.429 14.85-1.079 26.82-2.789 36.09-5.129 9.27-2.43 15.84-5.313 20.16-10.082 4.14-5.129 6.03-12.688 7.65-23.848 1.47-10.691 2.19-24.531 2.24-41.734l2.27-2.008h32.96l2.03 1.597c-1.37 36.977-2.06 71.043-2.06 102.262 0 28.766.69 60.375 2.07 94.895l-2.25 1.949h-29.97l-2.45-2.129c-1.45-26.742-3.77-45.141-7.63-56.012-1.34-3.758-2.86-6.711-5.18-9.047l.05-.043c-2.25-2.16-4.86-3.152-8.19-4.23-3.33-.902-7.29-1.621-12.24-2.25-9.72-1.262-22.95-1.891-39.69-2.07l-71.46-.45c-17.91 0-41.22.809-69.93 2.34l-4.77.27v4.769 98.008c0 58.774 1.98 104.852 6.03 138.332l.54 4.141 4.14.269c32.4 2.25 64.44 3.328 96.12 3.328 26.73 0 57.51-1.257 92.7-3.777 26.46-1.98 44.01-4.32 53.82-7.562 3.33-1.168 5.85-2.25 8.1-4.5 2.25-2.61 3.51-5.848 4.68-9.989 1.17-4.23 2.07-9.359 2.79-15.66 1.48-12.082 2.28-28.359 2.5-48.832l2.28-2.019h27.71l2.68 2.5 3.62 42.14v.09c1.08 11.699 2.7 26.012 4.95 42.75v.09l6.59 49.348-2.09 1.308c-190.49-1.879-319.68-2.863-387.81-2.863-75.4 0-131.48.957-168.33 2.785l-2.04-1.637v-27.449l2.51-2.137c17.69-.871 31.68-1.742 42.04-2.523 10.71-.813 17.28-1.441 20.79-2.25 5.94-1.441 10.89-3.871 14.76-7.563 3.87-3.597 6.39-8.457 7.47-13.859v.09c4.86-23.668 7.2-72.539 7.2-147.867v-240.031-.09l-1.62-106.02v-.09c-.54-27.09-1.8-45.7224-3.87-56.5192-.72-3.6016-1.53-6.3907-2.79-8.7305v-.0899c-1.35-2.1601-2.88-3.5117-5.22-5.3125-2.25-1.8007-5.22-3.8671-8.91-6.207-7.21-4.6055-17.19-10.4726-29.94-17.5078l-1.56-3.1758v-9.8984l2.2-1.9414c27.7 1.875 73.71 2.7304 138.2 2.7304" fill="#dedddd"/><path d="m5933.73 190.969c-7.99-46.094-11.98-98.1877-11.98-156.262l-5.45-4.7461-395.89 2.8438c-66.08 0-112.72-.9414-139.95-2.8438l-5.45 4.7461v13.2539l2.74 5.6914c26.85 14.8165 41.39 24.129 43.55 27.918 3.27 5.9883 5.26 26.9957 6 62.9927l1.64 106.074v240.047c0 75.136-2.36 124.066-7.09 146.796-1.82 9.153-7.99 14.985-18.5 17.52-5.46 1.254-26.69 2.848-63.73 4.746l-5.45 4.731v32.195l5.45 4.266c36.66-1.907 93.29-2.848 169.91-2.848 68.24 0 198 .941 389.33 2.848l6-3.79-7.07-52.554c-2.19-16.742-3.83-30.949-4.9-42.625l-3.81-44.039-5.45-5.211h-31.58l-5.45 4.754c-.37 42.922-3.28 67.386-8.71 73.379-4.01 4.414-23.52 7.886-58.56 10.418-35.04 2.515-65.78 3.789-92.28 3.789-31.61 0-63.56-1.11-95.84-3.313-4.01-33.148-6-79.086-6-137.793v-98.008c28.69-1.59 51.91-2.379 69.71-2.379l71.34.477c33.38.312 52.25 2.676 56.63 7.09 5.8 5.691 9.62 27.004 11.42 63.933l5.45 4.739h33.77l5.45-4.739c-1.47-35.359-2.19-67.722-2.19-97.058 0-31.895.72-66.77 2.19-104.649l-5.45-4.265h-36.5l-5.43 4.722c0 36.301-2.91 57.844-8.71 64.641-5.81 6.785-23.42 11.27-52.82 13.496-22.16 1.563-45.76 2.363-70.8 2.363-26.5 0-51.19-.8-74.06-2.363v-144.414c0-41.355.92-81.453 2.71-120.2812h74.07c105.99 0 170.99 3.6211 194.96 10.8867 3.98 1.2578 6.89 2.9885 8.71 5.2145 3.63 4.414 7.07 13.887 10.33 28.418l13.09 58.703 5.43 5.211h33.22z" fill="#231f20"/><path d="m5933.73 190.969-4.93.851c-8.05-46.441-12.05-98.8083-12.05-157.113h5l-3.28 3.7696-5.45-4.7461 3.28-3.7696.04 5-395.9 2.8438c-66.17-.0039-112.84-.9375-140.33-2.8555l.35-4.9883 3.29 3.7696-5.45 4.7461-3.29-3.7696h5v13.2539h-5l4.51-2.1679 2.74 5.6953-4.51 2.164 2.41-4.3789c13.49 7.4414 23.9 13.5079 31.32 18.2657 3.72 2.3828 6.68 4.4297 8.97 6.2226 2.29 1.8594 3.88 3.1758 5.19 5.3281l.03.043.02.0469c1.26 2.3711 2 5.1094 2.73 8.7422 2.08 10.7851 3.31 29.3941 3.88 56.5351v.016.011l1.64 106.075v.039.039 240.047c-.02 75.308-2.31 124.171-7.19 147.816v-.023-.024c-1.05 5.434-3.58 10.258-7.45 13.899-3.87 3.66-8.9 6.093-14.77 7.507l-.03.008-.03.004c-3.47.774-10.02 1.43-20.77 2.246-10.69.797-25.28 1.672-43.82 2.621l-.26-4.992 3.28 3.777-5.45 4.731-3.28-3.777h5v32.195h-5l3.09-3.938 5.45 4.266-3.09 3.938-.26-4.993c36.84-1.914 93.5-2.851 170.17-2.855 68.28 0 198.05.945 389.38 2.848l-.05 5-2.67-4.227 6-3.789 2.67 4.226-4.96.668-7.07-52.554v-.008-.012c-2.19-16.785-3.84-31.047-4.92-42.816v-.016l-.01-.012-3.8-44.039 4.98-.429-3.46 3.613-5.45-5.207 3.46-3.617v5h-31.58v-5l3.28 3.769-5.45 4.75-3.28-3.765 5 .043c-.19 21.57-1.01 38.547-2.5 51.086-.74 6.273-1.65 11.437-2.79 15.613-1.18 4.176-2.43 7.383-4.72 9.992-2.18 2.285-4.72 3.356-8.03 4.52-9.81 3.25-27.39 5.593-53.87 7.531-35.13 2.519-65.98 3.801-92.64 3.801-31.72 0-63.79-1.114-96.18-3.321l-4.13-.285-.5-4.105c-4.04-33.493-6.03-79.567-6.03-138.395v-98.008-4.726l4.72-.266c28.75-1.594 52.05-2.387 69.99-2.387l71.38.477c16.82.16 30.01.824 39.77 2.047 4.89.613 8.92 1.359 12.22 2.316 3.29 1.004 5.91 2.039 8.15 4.207l-3.55 3.52 3.5-3.567c2.34 2.344 3.82 5.329 5.19 9.086 3.94 11.207 6.34 30.239 7.73 58.172l-5 .242 3.28-3.769 5.45 4.734-3.28 3.774v-5h33.77v5l-3.28-3.774 5.45-4.734 3.28 3.769-5 .207c-1.46-35.418-2.19-67.847-2.19-97.265 0-31.969.73-66.906 2.19-104.84l5 .191-3.08 3.938-5.45-4.27 3.08-3.933v5h-36.5v-5l3.28 3.769-5.43 4.727-3.28-3.774h5c-.01 18.289-.73 32.918-2.23 44.051-1.6 11.164-3.53 18.738-7.68 23.836-4.25 4.817-10.89 7.633-20.13 10.059-9.25 2.355-21.23 4.047-36.11 5.176-22.32 1.574-46.03 2.378-71.18 2.378-26.6 0-51.4-.804-74.4-2.375l-4.66-.32v-4.668-144.414c0-41.43.92-81.605 2.72-120.5156l.22-4.7656h4.77 74.07c53.05 0 95.87.9024 128.52 2.7266 32.69 1.8437 55.01 4.5039 67.89 8.375l.03.0078.03.0117c4.54 1.4453 8.37 3.5352 11.07 6.8201v-.008l-.01-.007c2.41 2.964 4.3 6.847 6.14 11.882 1.83 5.032 3.55 11.211 5.21 18.618v.004.003l13.09 58.7-4.88 1.089 3.46-3.609 5.43 5.215-3.46 3.605v-4.996h33.22v4.996l-3.1-3.925 6-4.727 3.1 3.93-4.93.851 4.93-.851 3.09 3.926-6 4.726-1.36 1.07h-1.73-33.22-2.02l-1.45-1.39-5.43-5.215-1.08-1.047-.33-1.473-13.09-58.703v.004.004c-1.6-7.121-3.23-12.945-4.85-17.391-1.59-4.437-3.24-7.496-4.46-8.945l-.01-.008-.01-.007c-.93-1.168-2.91-2.536-6.34-3.61l1.51-4.7655-1.45 4.7855c-11.09-3.3948-33.25-6.18-65.55-7.9612-32.35-1.8086-75.02-2.711-127.96-2.711h-74.07v-5l5 .2305c-1.79 38.7457-2.71 78.7697-2.71 120.0507v144.414h-5l.34-4.988c22.74 1.555 47.32 2.351 73.72 2.351 24.93 0 48.41-.796 70.45-2.351 14.49-1.094 26.02-2.758 34.37-4.895 8.37-2.07 13.44-4.89 14.99-6.859 1.65-1.699 4.07-8.297 5.38-18.68 1.41-10.41 2.14-24.703 2.14-42.715v-2.273l1.71-1.496 5.43-4.727 1.41-1.226h1.88 36.5 1.72l1.36 1.062 5.45 4.266 2.01 1.574-.09 2.559c-1.47 37.824-2.19 72.633-2.19 104.453 0 29.254.72 61.551 2.18 96.855l.1 2.403-1.81 1.578-5.45 4.734-1.41 1.227h-1.87-33.77-1.87l-1.41-1.227-5.45-4.734-1.61-1.403-.1-2.128c-.89-18.336-2.3-32.743-4.14-43.047-.92-5.145-1.96-9.27-3.02-12.258-1.05-2.992-2.22-4.805-2.78-5.309l-.02-.023-.03-.024c.02-.054-1.33-.957-3.84-1.644-7.64-2.274-24.46-3.762-49.27-3.965l-71.34-.477c-17.61-.003-40.76.786-69.39 2.375l-.28-4.996h5v98.008c0 58.59 1.99 104.387 5.96 137.195l-4.96.598.34-4.984c32.17 2.191 64.01 3.297 95.5 3.297 26.34 0 56.97-1.266 91.92-3.778 17.42-1.254 30.94-2.75 40.4-4.437 4.72-.84 8.44-1.735 11.01-2.602 1.29-.426 2.28-.851 2.93-1.199l.71-.43.15-.113.01-.012c.42-.383 1.58-2.48 2.48-5.914 2.89-10.41 4.69-32.164 4.94-64.144l.02-2.25 1.69-1.477 5.45-4.754 1.41-1.23h1.88 31.58 2l1.45 1.386 5.45 5.211 1.37 1.301.16 1.883 3.81 44.035v-.012l-.01-.011c1.07 11.578 2.7 25.734 4.89 42.433l-.01-.007v-.008l7.07 52.55.43 3.18-2.71 1.715-6 3.789-1.24.789-1.48-.015c-191.32-1.907-321.08-2.848-389.28-2.848-76.58 0-133.16.945-169.65 2.84l-1.87.097-1.47-1.152-5.45-4.27-1.92-1.5v-2.433-32.195-2.278l1.73-1.496 5.45-4.73 1.3-1.133 1.72-.086c18.49-.949 33.03-1.82 43.58-2.609 10.49-.766 17.29-1.536 19.29-2.016l1.11 4.871-1.17-4.859c4.64-1.121 7.94-2.871 10.24-5.051 2.3-2.195 3.77-4.863 4.53-8.582v-.024-.019c4.58-21.817 7.01-70.817 6.99-145.781v-240.047h5l-5 .074-1.64-106.074v.015.012c-.37-17.922-1.05-32.086-2.03-42.379-.49-5.1405-1.05-9.3202-1.67-12.4491-.58-3.1171-1.32-5.2461-1.69-5.8711l4.39-2.3945-4.34 2.4844.45-.2539-.42.2969-.03-.043.45-.2539-.42.2969c-.09-.1758-1.29-1.418-3.27-2.8985-6-4.5937-18.98-12.4726-38.39-23.1679l-1.4-.7735-.69-1.4414-2.73-5.6914-.5-1.0273v-1.1368-13.2539-2.2734l1.72-1.4961 5.45-4.7461 1.56-1.3633 2.07.1446c26.97 1.8906 73.58 2.832 139.6 2.832l395.86-2.8438 1.89-.0156 1.43 1.2461 5.45 4.7461 1.71 1.4922v2.2773c0 57.8477 3.97 109.66 11.9 155.406l.51 2.938-2.34 1.844z" fill="#fff"/><path d="m6755.08 27.5508c-3.29.0508-9.59.207-18.76.4258-49.77 1.6211-80.73 2.3398-93.24 2.3398-18.09 0-46.2-.8398-84.46-2.6016-1.2 3.6211-3.07 7.6524-5.63 12.3204-3.6 6.5703-8.46 14.3125-14.76 23.2226h.09l-135.09 196.0192-.09.09v.09l-60.48 80.012v.09c-7.47 9.464-17.48 18.699-30.08 27.636l3.36 9.118c6.57-.239 11.59-.305 15.11-.305 36 0 64.62 4.859 86.04 15.121 19.44 9.359 37.17 25.469 53.1 48.059 16.29 22.949 24.3 50.488 24.3 81.898 0 27.449-5.85 50.762-17.91 69.75-12.06 18.902-30.15 33.301-53.82 42.93-22.77 9.179-55.08 13.589-97.11 13.589-18.45 0-36.09-1.257-53.1-3.867l-3.78-.543-.45-3.777c-3.6-31.41-5.4-84.152-5.4-158.762v-247.59c0-75.328 2.25-124.199 7.11-147.8707l.02.0039c1.09-5.4492 3.6-10.1914 7.45-13.8633 3.87-3.6875 8.91-6.1171 14.85-7.4687 3.51-.8086 9.99-1.4414 20.79-2.25 10.27-.7813 24.33-1.6524 42.02-2.5195l2.44-2.1172v-27.375l-1.75-1.7188c-36.49 1.8125-91.76 2.6797-165.83 2.6797-76.67 0-132.01-.8672-166.12-2.6836l-2.09 1.6485v27.4218l2.51 2.1407c17.69.871 31.68 1.7382 42.04 2.5234 10.8.8086 17.28 1.4414 20.79 2.25 5.94 1.3516 10.98 3.7812 14.85 7.4687 3.87 3.6914 6.39 8.461 7.38 13.9493v-.0899c4.95 23.6717 7.2 72.5427 7.2 147.8707v250.469c0 75.242-2.25 124.113-7.2 147.781v-.089c-.99 5.492-3.51 10.261-7.38 13.949-3.87 3.601-8.91 6.121-14.85 7.472-3.51.809-9.99 1.438-20.79 2.25-10.36.782-24.35 1.653-42.04 2.524l-2.51 2.137v27.484l2.07 1.598c35.88-1.828 91.15-2.786 166.14-2.786 44.28 0 80.28.543 108 1.442 54.72 1.891 95.76 2.879 122.85 2.879 62.55 0 108.36-4.949 136.8-14.399 38.61-13.05 63.63-34.379 76.41-64.441 6.21-14.758 9.45-32.398 9.45-53.008-.09-41.851-13.41-77.133-40.32-106.742-27-29.609-67.86-53.457-122.85-71.277l-6.39-2.071 3.78-5.492c18.18-26.641 37.53-53.551 57.87-80.73v.089l83.88-112.226h-.09c24.75-33.211 45.36-59.313 61.92-78.391 16.65-18.9919 28.89-30.8708 38.25-36.1794 9.06-5.1758 20.85-7.5352 35.37-7.7227l2.34-1.9961v-25.8671z" fill="#bdbbbc"/><path d="m6550.74 17.3555-.81 4.2304c-.54 2.8829-2.43 7.6524-5.76 13.6797-3.24 6.1211-8.01 13.5-14.13 22.2305v.0898l-135.09 196.0191.03.024-60.33 79.809.06.042c-7.2 9.165-17.54 18.512-31.02 27.766l-3.24 2.16 1.35 3.692 6.03 16.109 1.26 3.422 3.69-.184c8.28-.359 14.4-.449 18.27-.449 35.1 0 62.37 4.859 81.72 14.133v.09c17.55 8.277 34.02 23.129 49.23 44.726 14.94 21.243 22.5 46.352 22.5 76.141 0 26.012-5.49 47.34-16.38 64.352-10.8 17.007-27 29.968-49.14 39.058h.09c-20.79 8.371-52.11 12.871-93.42 12.871-16.62 0-32.47-1.078-47.77-3.226-3.31-30.996-4.97-82.348-4.97-153.735v-247.59c-.09-74.968 2.34-124.019 6.93-145.8004v-.0898c.81-3.6875 2.25-6.3906 4.5-8.5469 2.34-2.1601 5.67-3.9609 10.26-5.043 1.98-.4492 8.73-1.2578 19.26-2.0703 10.53-.7187 25.11-1.6172 43.56-2.5195l1.71-.0898 1.35-1.168 5.49-4.7695 1.71-1.4415v-2.3398-31.6797-2.1601l-1.53-1.4414-4.95-4.7696-1.53-1.4414-2.25.0899c-36.09 1.8906-91.98 2.7929-167.4 2.7929-78.03 0-133.92-.9023-167.49-2.7929l-1.8-.0899-1.53 1.1719-5.4 4.2305-1.98 1.5312v2.4297 32.1289 2.3398l1.71 1.4415 5.49 4.7695 1.26 1.168 1.8.0898c18.45.9023 33.03 1.8008 43.56 2.5195 10.44.8125 17.28 1.6211 19.26 2.0703 4.59 1.0821 7.92 2.793 10.17 5.043 2.34 2.1563 3.78 4.8594 4.5 8.5469h.09v.0898c4.5 21.7814 6.93 70.8324 6.93 145.8004v250.469c0 74.883-2.43 123.934-6.93 145.711v.09h-.09c-.72 3.691-2.16 6.391-4.5 8.551-2.25 2.16-5.58 3.961-10.26 5.039v.019c-2.08.453-8.87 1.254-19.17 2.051-10.53.723-25.11 1.621-43.65 2.52l-1.71.089-1.26 1.172-5.49 4.77-1.71 1.441v2.34 32.129 2.43l1.98 1.531 5.4 4.23 1.44 1.168 1.89-.089c35.46-1.891 91.26-2.789 167.49-2.789 44.19 0 80.1.449 107.64 1.347 54.81 1.891 95.85 2.883 123.21 2.883 63.09 0 109.53-4.859 139.95-14.941 40.5-13.5 68.49-36.989 82.53-70.02 6.84-16.289 10.17-35.281 10.17-56.879 0-44.012-14.4-82.172-42.93-113.492-27.53-30.125-67.89-54-120.82-71.957 16.99-24.68 34.92-49.602 53.86-74.832l83.88-112.231c24.57-33.121 45.09-59.039 61.38-77.757 16.2-18.6332 28.53-30.1527 35.55-34.0238h.09c7.2-4.1368 18-6.4766 32.31-6.4766h1.89l1.44-1.2617 5.4-4.6797 1.8-1.5313v-2.25-30.3281-2.25l-1.8-1.5312-5.4-4.7696-1.44-1.1718h-1.89c-2.7 0-9.54.1836-20.79.4531-49.77 1.6172-80.82 2.3398-92.97 2.3398-18.36 0-47.79-.9023-88.02-2.7929l-4.32-.1797m92.34 12.9609c12.51 0 43.47-.7187 93.24-2.3398 9.17-.2188 15.47-.375 18.76-.4258l2.21 1.9219v25.8671l-2.34 1.9961c-14.52.1875-26.31 2.5469-35.37 7.7227-9.36 5.3086-21.6 17.1875-38.25 36.1794-16.56 19.078-37.17 45.18-61.92 78.391h.09l-83.88 112.226v-.089c-20.34 27.179-39.69 54.089-57.87 80.73l-3.78 5.492 6.39 2.071c54.99 17.82 95.85 41.668 122.85 71.277 26.91 29.609 40.23 64.891 40.32 106.742 0 20.61-3.24 38.25-9.45 53.008-12.78 30.062-37.8 51.391-76.41 64.441-28.44 9.45-74.25 14.399-136.8 14.399-27.09 0-68.13-.988-122.85-2.879-27.72-.899-63.72-1.442-108-1.442-74.99 0-130.26.958-166.14 2.786l-2.07-1.598v-27.484l2.51-2.137c17.69-.871 31.68-1.742 42.04-2.524 10.8-.812 17.28-1.441 20.79-2.25 5.94-1.351 10.98-3.871 14.85-7.472 3.87-3.688 6.39-8.457 7.38-13.949v.089c4.95-23.668 7.2-72.539 7.2-147.781v-250.469c0-75.328-2.25-124.199-7.2-147.8707v.0899c-.99-5.4883-3.51-10.2579-7.38-13.9493-3.87-3.6875-8.91-6.1171-14.85-7.4687-3.51-.8086-9.99-1.4414-20.79-2.25-10.36-.7852-24.35-1.6524-42.04-2.5234l-2.51-2.1407v-27.4218l2.09-1.6485c34.11 1.8164 89.45 2.6836 166.12 2.6836 74.07 0 129.34-.8672 165.83-2.6797l1.75 1.7188v27.375l-2.44 2.1172c-17.69.8671-31.75 1.7382-42.02 2.5195-10.8.8086-17.28 1.4414-20.79 2.25-5.94 1.3516-10.98 3.7812-14.85 7.4687-3.85 3.6719-6.36 8.4141-7.45 13.8633l-.02-.0039c-4.86 23.6717-7.11 72.5427-7.11 147.8707v247.59c0 74.61 1.8 127.352 5.4 158.762l.45 3.777 3.78.543c17.01 2.61 34.65 3.867 53.1 3.867 42.03 0 74.34-4.41 97.11-13.589 23.67-9.629 41.76-24.028 53.82-42.93 12.06-18.988 17.91-42.301 17.91-69.75 0-31.41-8.01-58.949-24.3-81.898-15.93-22.59-33.66-38.7-53.1-48.059-21.42-10.262-50.04-15.121-86.04-15.121-3.52 0-8.54.066-15.11.305l-3.36-9.118c12.6-8.937 22.61-18.172 30.08-27.636v-.09l60.48-80.012v-.09l.09-.09 135.09-196.0192h-.09c6.3-8.9101 11.16-16.6523 14.76-23.2226 2.56-4.668 4.43-8.6993 5.63-12.3204 38.26 1.7618 66.37 2.6016 84.46 2.6016" fill="#dedddd"/><path d="m6755.13 34.4648-5.45-4.746c-2.54 0-9.43.164-20.7.4765-49.73 1.5899-80.76 2.3633-93.11 2.3633-18.51 0-47.93-.9375-88.22-2.8398-1.44 7.5781-8.34 20.1914-20.68 37.8789l-135.06 196.0473-60.43 80.027c-7.64 9.773-18.36 19.402-32.15 28.879l6.02 16.101c8.34-.339 14.51-.488 18.49-.488 35.57 0 63.54 4.902 83.87 14.695 18.52 8.832 35.59 24.297 51.19 46.399 15.61 22.101 23.42 48.445 23.42 79.07 0 53.348-22.87 89.344-68.61 107.973-21.8 8.832-53.56 13.246-95.3 13.246-18.16 0-35.58-1.274-52.28-3.785-3.63-30.938-5.45-83.653-5.45-158.145v-247.644c0-75.137 2.34-124.075 7.09-146.7972 1.8-9.1719 7.97-15.0117 18.51-17.5235 5.43-1.2656 26.68-2.8398 63.72-4.7226l5.44-4.7578v-31.7071l-4.92-4.746c-36.29 1.9023-92.2 2.8398-167.71 2.8398-78.05 0-133.97-.9375-167.72-2.8398l-5.45 4.2656v32.1875l5.45 4.7578c37.03 1.8828 58.28 3.457 63.73 4.7226 10.51 2.5118 16.68 8.3516 18.5 17.5235 4.73 22.7222 7.09 71.6602 7.09 146.7972v250.476c0 75.133-2.36 124.063-7.09 146.793-1.82 9.145-7.99 14.985-18.5 17.52-5.45 1.254-26.7 2.847-63.73 4.746l-5.45 4.73v32.192l5.45 4.269c35.59-1.906 91.49-2.847 167.72-2.847 44.27 0 80.21.464 107.83 1.421 54.8 1.883 95.82 2.844 123.07 2.844 62.79 0 108.88-4.894 138.32-14.683 39.55-13.274 66.05-35.664 79.49-67.231 6.54-15.484 9.8-33.797 9.8-54.933 0-85.875-55.54-146.793-166.64-182.782 18.15-26.531 37.4-53.355 57.74-80.484l83.84-112.227c49.38-66.3 82.23-104.0348 98.58-113.1754 8.34-4.7383 19.96-7.0977 34.84-7.0977l5.45-4.7266z" fill="#231f20"/><path d="m6755.13 34.4648-3.28 3.7696-5.45-4.7461 3.28-3.7695v5c-2.38-.004-9.32.164-20.56.4765-49.74 1.5899-80.74 2.3633-93.25 2.3633-18.67 0-48.12-.9414-88.45-2.8477l.23-4.9921 4.91.9335c-.92 4.6993-3.21 10.0391-6.78 16.6133-3.57 6.5469-8.47 14.25-14.71 23.1953l.01-.0117.01-.0156-135.06 196.0464-.07.09-.06.086-60.43 80.028-.03.035-.02.031c-8.06 10.309-19.17 20.234-33.26 29.922l-2.83-4.121 4.68-1.75 6.02 16.101-4.68 1.75-.21-4.996c8.39-.343 14.6-.492 18.7-.492 36.02.016 64.67 4.918 86.04 15.191l-.01-.003-.01-.004c19.5 9.3 37.17 25.433 53.13 48.027 16.25 22.992 24.35 50.492 24.33 81.953.01 27.371-5.89 50.731-17.93 69.688-12.04 18.961-30.16 33.304-53.8 42.914v.004h-.01c-22.82 9.218-55.07 13.593-97.17 13.613-18.4 0-36.07-1.293-53.03-3.84l-3.77-.57-.45-3.793c-3.67-31.364-5.48-84.133-5.48-158.727v-247.644c.02-75.309 2.29-124.176 7.19-147.8207l4.9 1.0235-4.91-.9649c1.05-5.4414 3.57-10.2773 7.45-13.9257 3.87-3.6641 8.92-6.0938 14.82-7.4961 3.5-.793 10.03-1.4414 20.79-2.2539 10.68-.793 25.28-1.6563 43.82-2.6016l.26 4.9961-3.29-3.7695 5.45-4.7539 3.28 3.7656h-5v-31.7071h5l-3.47 3.5977-4.92-4.7461 3.47-3.5976.26 4.9921c-36.46 1.9102-92.42 2.8477-167.97 2.8477-78.1 0-134.05-.9375-168-2.8477l.28-4.9921 3.09 3.9335-5.45 4.2696-3.09-3.9375h5v32.1875h-5l3.29-3.7656 5.45 4.7539-3.29 3.7695.26-4.9961c18.54.9453 33.13 1.8086 43.82 2.6016 10.76.8125 17.3 1.4609 20.79 2.25 5.9 1.4062 10.94 3.8398 14.81 7.5 3.87 3.6484 6.39 8.4804 7.45 13.9179v-.0234l-.01-.0234c4.89 23.6407 7.18 72.5077 7.2 147.8167v250.476c-.02 75.305-2.31 124.164-7.2 147.809l.01-.02v-.023c-1.06 5.43-3.58 10.254-7.45 13.894-3.87 3.661-8.9 6.098-14.77 7.512l-.03.008-.02.004c-3.47.773-10.02 1.43-20.78 2.246-10.68.797-25.28 1.672-43.82 2.621l-.26-4.992 3.28 3.773-5.45 4.735-3.28-3.778h5v32.192h-5l3.09-3.938 5.45 4.27-3.09 3.937-.26-4.992c35.76-1.914 91.7-2.855 167.98-2.855 44.31 0 80.29.464 108 1.425 54.78 1.883 95.76 2.844 122.9 2.84 62.51.024 108.29-4.937 136.74-14.429l-.01.003c38.61-13.015 63.62-34.359 76.48-64.445v.008l-.01.004c6.23-14.727 9.41-32.36 9.41-52.988-.04-41.868-13.4-77.114-40.35-106.731-26.97-29.59-67.82-53.48-122.83-71.293l-6.36-2.058 3.77-5.52c18.19-26.598 37.49-53.48 57.87-80.664l-.01.004 83.85-112.227v.004l-.01.004c24.74-33.215 45.35-59.301 61.92-78.316 16.64-19.0394 28.9-30.9417 38.23-36.2347l-.02.0078-.01.0078c9.48-5.3555 21.91-7.7383 37.31-7.75v5l-3.27-3.7773 5.45-4.7305 3.27 3.7812h-5v-30.3125h5l-3.28 3.7696 3.28-3.7696h5v30.3125 2.2813l-1.72 1.4961-5.45 4.7226-1.41 1.2266h-1.87c-14.37-.0156-25.17 2.332-32.37 6.4453l-.02.0078-.01.0078c-7.02 3.8477-19.36 15.3868-35.57 34.0742-16.3 18.707-36.8 44.637-61.44 77.723v.004.004l-83.85 112.226v.004c-20.29 27.074-39.51 53.844-57.61 80.313l-4.13-2.825 1.54-4.754c56.09 18.172 98.55 42.735 127.14 74.071 28.59 31.308 43 69.453 42.96 113.465 0 21.644-3.33 40.632-10.2 56.882v.004.008c-14.02 33.039-42.01 56.481-82.5 70.008l-.01.004h-.01c-30.41 10.086-76.82 14.922-139.89 14.941-27.36 0-68.41-.961-123.24-2.847-27.53-.954-63.42-1.418-107.66-1.418-76.19 0-132.04.945-167.45 2.839l-1.87.102-1.48-1.156-5.45-4.27-1.92-1.5v-2.437-32.192-2.281l1.73-1.492 5.44-4.735 1.31-1.128 1.72-.086c18.49-.95 33.03-1.821 43.59-2.61 10.49-.769 17.29-1.539 19.27-2.019l1.12 4.875-1.17-4.864c4.63-1.117 7.94-2.867 10.24-5.046 2.3-2.2 3.77-4.868 4.52-8.586l.01-.02v-.023c4.57-21.813 7.01-70.813 6.99-145.774v-250.476c.02-74.969-2.42-123.969-6.99-145.7816v-.0234l-.01-.0235c-.75-3.7304-2.23-6.4023-4.52-8.5976-2.3-2.1797-5.6-3.9219-10.23-5.0274-1.94-.4765-8.74-1.25-19.23-2.0117-10.56-.7812-25.1-1.6445-43.59-2.5859l-1.73-.0899-1.31-1.1367-5.44-4.7578-1.72-1.4922v-2.2734-32.1875-2.4336l1.92-1.5039 5.45-4.2656 1.48-1.1641 1.88.1094c33.55 1.8906 89.44 2.832 167.44 2.832 75.46 0 131.33-.9375 167.45-2.8359l2.17-.1133 1.56 1.5078 4.92 4.7461 1.53 1.4765v2.125 31.7071 2.2734l-1.71 1.4922-5.45 4.7578-1.3 1.1406-1.73.086c-18.49.9414-33.04 1.8047-43.59 2.5859-10.49.7617-17.29 1.5352-19.24 2.0156-4.63 1.1055-7.94 2.8477-10.24 5.0274-2.29 2.1875-3.76 4.8555-4.5 8.5859l-.01.0313-.01.0273c-4.59 21.8047-7 70.8087-6.98 145.7777v247.644c-.01 74.395 1.82 127.051 5.41 157.563l-4.96.582.74-4.946c16.44 2.473 33.61 3.731 51.54 3.731 41.38.019 72.65-4.438 93.42-12.883l-.01.004c22.11-9.02 38.29-21.988 49.13-39.016 10.82-17.035 16.36-38.347 16.37-64.324-.02-29.785-7.55-54.98-22.5-76.187-15.26-21.606-31.73-36.411-49.26-44.766l-.01-.004-.01-.004c-19.29-9.316-46.58-14.219-81.7-14.203-3.87 0-9.99.145-18.29.484l-3.62.149-1.27-3.395-6.01-16.101-1.37-3.66 3.22-2.211c13.49-9.262 23.82-18.594 31.04-27.836l3.94 3.078-3.99-3.012 60.43-80.031 3.99 3.016-4.12-2.84 135.06-196.0433.01-.0117.01-.0156c6.1-8.7383 10.82-16.1875 14.14-22.2617 3.32-6.0547 5.2-10.8125 5.73-13.6914l.81-4.2618 4.34.2032c40.25 1.9023 69.63 2.8359 87.98 2.8359 12.19 0 43.25-.7695 92.95-2.3594 11.31-.3125 18.16-.4804 20.86-.4804h1.87l1.42 1.2265 5.45 4.7461 1.71 1.4961v2.2773h-5" fill="#fff"/><path d="m739.285 27.4531c-50.902 2.6289-128.976 3.9453-234.387 3.9453-107.867 0-186.003-1.3125-234.418-3.9336l-3.718 3.1875v40.754l4.691 4.0859c25.277 1.2305 45.231 2.457 59.926 3.5156 15.031 1.168 24.301 2.0703 28.891 3.1485h.089c8.012 1.8906 14.762 5.2226 19.891 10.082 5.109 4.75 8.434 11.1097 9.883 18.3637l.015-.004c6.84 32.937 10.082 101.699 10.082 207.629v378.539c0 54.812-.179 97.742-.628 128.613-.364 30.957-.903 49.769-1.711 57.148l-.45 4.5h-4.5-109.621c-45.898 0-82.172-.629-108.992-1.89-13.406-.629-24.476-1.352-33.207-2.25-8.82-.989-15.211-2.071-19.621-3.418h-.09c-8.64-2.883-15.211-6.481-19.262-11.793l-.179-.09-.09-.18c-5.3985-8.551-9.0001-23.039-12.2384-44.64-3.4961-23.063-5.7968-46.723-6.8359-70.977l-4.6914-4.082h-44.6563l-5.2304 4.117-1.4961 111.531v.09c-.4375 31.403-3.4492 63.832-8.8516 97.371l3.3242 3.192c16.7774-2.09 50.9102-3.684 103.1759-4.711 55.082-1.078 129.961-1.621 224.82-1.621h310.59c172.141 0 281.313 2.094 328.031 6.453l4.004-3.445c-5.875-32.239-9.039-65.579-9.562-99.938l-1.5-109.012-4.629-4.027h-44.727l-5.238 3.734c-1.227 27.278-2.539 49.043-3.938 65.297-1.441 16.918-2.789 27.629-4.589 33.481h-.09v.09c-3.422 9.898-9.903 18-18.903 23.757-8.98 5.75-20.468 9.254-34.199 10.879v.012c-5.758.719-20.16 1.172-44.371 1.531-24.027.36-57.508.539-100.527.539h-102.692-4.679l-.36-4.679c-.992-16.02-1.531-77.582-1.531-185.582v-378.539c0-105.93 3.332-174.692 10.082-207.539l4.949.988-4.949-.988c1.438-7.29 4.77-13.6802 9.899-18.4497 5.128-4.8594 11.878-8.1914 19.98-10.082 4.59-1.0782 13.859-1.9805 28.891-3.1485 14.695-1.0586 34.648-2.2851 59.925-3.5156l4.696-4.0859v-40.0586z" fill="#bdbbbc"/><path d="m742.77 17.2656-1.981.0899c-50.398 2.7031-129.148 4.0508-235.891 4.0508-109.347 0-188.097-1.3477-235.976-4.0508l-1.981-.0899-1.531 1.3516-6.93 5.9414-1.71 1.5273v2.25 45.3594 2.25l1.71 1.5313 7.649 6.6601 1.351 1.1719 1.711.0898c26.098 1.2579 46.528 2.5196 61.469 3.5977 14.762 1.082 24.301 2.1602 27.36 2.8828 6.75 1.6172 11.789 4.2266 15.39 7.5586 3.512 3.4175 5.762 7.5585 6.93 13.2305 6.48 31.051 9.898 99.988 9.898 205.559v378.539c0 54.812-.179 97.652-.629 128.519-.296 25.496-.718 42.895-1.265 51.75h-105.024c-68.582 0-115.832-1.437-141.211-4.137-8.371-.902-14.398-1.98-17.64-2.972h.09c-7.465-2.344-12.075-5.356-14.25-7.988l.031-.02c-3.781-5.672-7.828-19.621-10.8009-40.59v-.09c-3.5078-23.312-5.8477-47.34-6.8399-72.09l-.0898-2.07-1.6211-1.441-7.6485-6.66-1.4414-1.258h-1.8867-48.2422-1.8007l-1.3477 1.078-8.4609 6.66-1.8907 1.441v2.43l-1.5312 113.938c-.4492 31.769-3.5078 64.531-9.08986 98.55l-.44922 2.61 1.89062 1.801 6.92966 6.66 1.711 1.711 2.4297-.36c14.4882-2.16 49.5898-3.871 104.4878-4.953 54.903-1.078 129.782-1.617 224.551-1.617h310.59c174.691 0 284.762 2.16 329.223 6.57l2.16.27 1.617-1.442 7.741-6.66-3.331-3.777 3.331 3.777 2.16-1.89-.54-2.789c-6.119-32.579-9.361-66.329-9.9-101.161l-1.531-111.238v-2.25l-1.707-1.441-7.742-6.66-1.348-1.258h-1.891-48.332-1.527l-1.352.988-8.371 5.941-2.07 1.438-.09 2.43c-1.258 28.351-2.609 50.851-4.051 67.41-1.34 16.359-2.859 27.215-4.113 31.148l-.023-.008c-2.704 7.832-7.473 13.86-14.852 18.539-7.289 4.68-17.281 7.922-30.059 9.454h-.089c-4.5.629-19.172 1.078-43.114 1.437-24.027.359-57.418.539-100.437.539h-97.973c-.844-20.847-1.297-81.168-1.297-180.269v-378.539c0-105.571 3.418-174.508 9.899-205.559 1.172-5.672 3.422-9.813 6.929-13.2305 3.602-3.332 8.641-5.9414 15.391-7.5586 3.059-.7226 12.602-1.8008 27.359-2.8828 14.942-1.0781 35.371-2.3398 61.469-3.5977l1.711-.0898 1.352-1.1719 7.648-6.6601 1.711-1.5313v-2.25-44.6367-2.3398l-1.711-1.4415-7.738-6.6601-1.531-1.3516m-237.872 14.1328c105.411 0 183.485-1.3164 234.387-3.9453l4.477 3.8946v40.0586l-4.696 4.0859c-25.277 1.2305-45.23 2.457-59.925 3.5156-15.032 1.168-24.301 2.0703-28.891 3.1485-8.102 1.8906-14.852 5.2226-19.98 10.082-5.129 4.7695-8.461 11.1597-9.899 18.4497l4.949.988-4.949-.988c-6.75 32.847-10.082 101.609-10.082 207.539v378.539c0 108 .539 169.562 1.531 185.582l.36 4.679h4.679 102.692c43.019 0 76.5-.179 100.527-.539 24.211-.359 38.613-.812 44.371-1.531v-.012c13.731-1.625 25.219-5.129 34.199-10.879 9-5.757 15.481-13.859 18.903-23.757v-.09h.09c1.8-5.852 3.148-16.563 4.589-33.481 1.399-16.254 2.711-38.019 3.938-65.297l5.238-3.734h44.727l4.629 4.027 1.5 109.012c.523 34.359 3.687 67.699 9.562 99.938l-4.004 3.445c-46.718-4.359-155.89-6.453-328.031-6.453h-310.59c-94.859 0-169.738.543-224.82 1.621-52.2657 1.027-86.3985 2.621-103.1759 4.711l-3.3242-3.192c5.4024-33.539 8.4141-65.968 8.8516-97.371v-.09l1.4961-111.531 5.2304-4.117h44.6563l4.6914 4.082c1.0391 24.254 3.3398 47.914 6.8359 70.977 3.2383 21.601 6.8399 36.089 12.2384 44.64l.09.18.179.09c4.051 5.312 10.622 8.91 19.262 11.793h.09c4.41 1.347 10.801 2.429 19.621 3.418 8.731.898 19.801 1.621 33.207 2.25 26.82 1.261 63.094 1.89 108.992 1.89h109.621 4.5l.45-4.5c.808-7.379 1.347-26.191 1.711-57.148.449-30.871.628-73.801.628-128.613v-378.539c0-105.93-3.242-174.692-10.082-207.629l-.015.004c-1.449-7.254-4.774-13.6137-9.883-18.3637-5.129-4.8594-11.879-8.1914-19.891-10.082h-.089c-4.59-1.0782-13.86-1.9805-28.891-3.1485-14.695-1.0586-34.649-2.2851-59.926-3.5156l-4.691-4.0859v-40.754l3.718-3.1875c48.415 2.6211 126.551 3.9336 234.418 3.9336" fill="#dedddd"/><path d="m990.016 969.84c-6.133-32.891-9.457-66.856-9.977-101.965l-1.519-111.277-7.684-6.657h-48.309l-8.422 5.989c-2.585 56.84-5.394 90.175-8.464 99.968-6.133 17.739-22.504 28.2-49.078 31.305-10.239 1.332-58.282 1.996-144.168 1.996h-102.747c-1.035-15.562-1.55-77.312-1.55-185.269v-378.481c0-105.769 3.328-174.621 9.976-206.59 2.551-12.902 11.239-21.1051 26.098-24.6481 7.644-1.7773 37.547-3.9961 89.691-6.6523l7.692-6.6914v-44.6445l-7.692-6.6524c-50.633 2.6563-129.351 3.9961-236.191 3.9961-109.395 0-188.152-1.3398-236.195-3.9961l-6.875 5.9883v45.3086l7.648 6.6914c52.148 2.6562 82.047 4.875 89.73 6.6523 14.821 3.543 23.508 11.7461 26.055 24.6481 6.656 31.969 9.985 100.821 9.985 206.59v378.481c0 109.726-.778 171.484-2.293 185.269h-109.653c-91.543 0-144.984-2.441-160.289-7.32-8.203-2.66-13.816-6.024-16.8827-10.016-4.5859-7.093-8.4296-21.32-11.496-42.644-3.586-23.543-5.879-47.75-6.9141-72.621l-7.6484-6.657h-48.3047l-8.461 6.657-1.5195 113.937c-.5156 32.004-3.582 65.082-9.19532 99.305l6.90622 6.656c30.1563-4.441 140.0705-6.656 329.7385-6.656h310.586c174.808 0 284.719 2.215 329.734 6.656z" fill="#231f20"/><path d="m990.016 969.84-4.918.914c-6.188-33.18-9.535-67.43-10.059-102.805v-.004l-1.519-111.281 5-.066-3.274 3.781-7.683-6.656 3.273-3.782v5h-48.309v-5l2.899 4.075-8.422 5.988-2.899-4.074 4.997.226c-1.297 28.457-2.649 51.051-4.067 67.821-1.449 16.843-2.828 27.554-4.625 33.418l-.019.07-.028.066c-3.39 9.899-9.871 17.989-18.91 23.723-9.035 5.758-20.508 9.297-34.308 10.914l-.582-4.965.644 4.957c-5.762.735-20.152 1.195-44.293 1.539-24.066.336-57.562.5-100.519.5h-102.747-4.679l-.309-4.668c-1.055-16.008-1.558-77.562-1.562-185.601v-378.481c.019-105.941 3.277-174.722 10.082-207.609l4.894 1.019-4.902-.972c1.426-7.305 4.762-13.664 9.902-18.4964 5.133-4.8476 11.887-8.1289 19.938-10.0429l.011-.0039.016-.004c4.582-1.039 13.836-1.9804 28.922-3.1132 15.012-1.1133 35.551-2.3321 61.648-3.6602l.254 4.9922-3.281-3.7734 7.688-6.6875 3.285 3.7695h-5v-44.6445h5l-3.274 3.7812-7.687-6.6523 3.269-3.7813.262 4.9922c-50.805 2.6641-129.566 4-236.453 4.0039-109.445-.0039-188.234-1.3359-236.473-4.0039l.278-4.9922 3.281 3.7695-6.875 5.9883-3.281-3.7695h5v45.3086h-5l3.289-3.7617 7.652 6.6914-3.293 3.7617.254-4.9922c26.098 1.3281 46.637 2.5469 61.656 3.6602 15.086 1.1328 24.356 2.0742 28.949 3.1132l.02.004.016.0039c8.031 1.9179 14.777 5.1992 19.902 10.0429 5.137 4.8364 8.469 11.1914 9.894 18.4964l-4.906.972 4.899-1.019c6.808 32.887 10.062 101.668 10.086 207.609v378.481c0 54.879-.196 97.761-.579 128.675-.39 30.973-.941 49.723-1.742 57.141l-.492 4.453h-4.48-109.653c-45.816 0-82.121-.609-108.961-1.836-13.425-.613-24.484-1.379-33.23-2.308-8.766-.946-15.137-1.996-19.613-3.41l-.016-.004-.012-.004c-8.711-2.856-15.2147-6.481-19.3045-11.723l-.125-.164-.1094-.172c-5.4023-8.527-9.0703-23.004-12.2461-44.648l.0039.019.0039.024c-3.6171-23.739-5.9257-48.125-6.9687-73.168l4.9961-.207-3.2813 3.769-7.6523-6.652 3.2852-3.774v5h-48.3047v-5l3.0937 3.93-8.4609 6.656-3.0938-3.929 5 .066-1.5195 113.941v.004.008c-.5195 32.266-3.6133 65.586-9.2617 100.031l-4.93362-.808 3.46485-3.602 6.91017 6.657-3.4688 3.601-.7265-4.949c15.6836-2.293 50.6133-3.922 105.68-5.043 55.011-1.109 129.929-1.664 224.785-1.664h310.586c174.898.004 284.715 2.203 330.226 6.68l-.492 4.976-3.273-3.781 7.687-6.656 3.274 3.781-4.918.914 4.918-.914 3.273 3.777-7.687 6.656-1.625 1.407-2.137-.211c-44.524-4.399-154.527-6.637-329.246-6.629h-310.586c-94.817 0-169.688.555-224.586 1.66-54.8439 1.098-89.9493 2.797-104.422 4.941l-2.4297.356-1.76952-1.703-6.90625-6.653-1.89062375-1.82.42187475-2.59c5.582029-34.004 8.621099-66.836 9.136719-98.574v.008.008l1.5156-113.942.0313-2.386 1.8789-1.477 8.4609-6.656 1.3594-1.071h1.7305 48.3047 1.8671l1.4141 1.227 7.6484 6.656 1.625 1.414.0899 2.153c1.0273 24.699 3.3008 48.722 6.8633 72.074v.019l.0039.024c2.957 21.004 6.9765 34.98 10.7465 40.644l-4.1997 2.711 3.9647-3.047c2.039 2.735 6.77 5.84 14.461 8.309l-.012-.004-.011-.004c3.172 1.024 9.218 2.106 17.636 2.992 25.364 2.707 72.567 4.094 141.133 4.09h109.653v5l-4.969-.547c.711-6.363 1.308-25.386 1.683-56.172.383-30.839.579-73.699.579-128.55v-378.481c.019-105.601-3.379-174.515-9.879-205.57l-.004-.027-.004-.024c-1.125-5.598-3.406-9.789-6.957-13.172-3.559-3.363-8.567-5.957-15.356-7.5857l.016.0039.019.0078c-3.089-.7422-12.617-1.7968-27.433-2.8828-14.891-1.1015-35.375-2.3203-61.426-3.6484l-1.73-.086-1.305-1.1406-7.652-6.6914-1.707-1.4922v-2.2734-45.3086-2.2773l1.714-1.4961 6.875-5.9844 1.532-1.336 2.027.1133c47.855 2.6485 126.574 3.9883 235.922 3.9883 106.793 0 185.473-1.3398 235.93-3.9883l2.007-.1054 1.524 1.3164 7.691 6.6484 1.731 1.4961v2.2891 44.6445 2.2812l-1.719 1.4922-7.691 6.6914-1.305 1.1328-1.723.086c-26.051 1.3281-46.531 2.5469-61.418 3.6484-14.812 1.0821-24.332 2.1446-27.398 2.8789l.015-.0039h.012c-6.808 1.6248-11.824 4.2228-15.387 7.5858-3.554 3.379-5.836 7.57-6.961 13.168l-.003.024-.004.023c-6.496 31.059-9.899 99.973-9.875 205.574v378.481c-.008 107.875.523 169.82 1.539 184.937l-4.989.332v-5h102.747c42.929 0 76.394-.164 100.382-.496 23.914-.324 38.664-.859 43.141-1.461l.031-.004.031-.004c12.774-1.488 22.774-4.73 30.094-9.41 7.328-4.707 12.102-10.719 14.84-18.558l4.727 1.632-4.774-1.496c1.278-3.933 2.836-14.785 4.203-31.269 1.403-16.555 2.75-39.051 4.043-67.434l.11-2.433 1.988-1.414 8.422-5.985 1.301-.926h1.593 48.309 1.863l1.41 1.219 7.684 6.656 1.695 1.469.032 2.242 1.519 111.282v-.004-.004c.512 34.84 3.813 68.519 9.891 101.121l.527 2.82-2.168 1.875z" fill="#fff"/><path d="m1495.92 27.8945-2.01 1.5743v27.3554l2.78 2.1953c17.82.9532 31.9 1.7383 42.31 2.5274 10.71.8086 17.28 1.5312 20.79 2.25 5.85 1.4414 10.89 3.8711 14.76 7.5586 3.87 3.6015 6.39 8.4609 7.47 13.8633 4.86 23.5782 7.2 72.4492 7.2 147.7772v114.121 4.59l-4.59.359c-18.99 1.622-77.67 2.43-176.85 2.43-91.53 0-151.83-.808-181.08-2.43l-4.77-.179v-4.77-114.121c.09-75.328 2.34-124.109 7.2-147.7772l4.95.9882-4.95-.9882c1.08-5.4024 3.6-10.2618 7.47-13.8633 3.87-3.6875 8.91-6.1172 14.76-7.5586h.09c3.42-.7188 9.99-1.4414 20.79-2.25 10.29-.7852 24.37-1.5703 42.09-2.5156l2.37-2.0938v-27.3125l-1.75-1.7187c-36.49 1.8164-91.76 2.6796-165.83 2.6796-76.69 0-132.04-.8671-166.143-2.6875l-2.067 1.5938v27.4219l2.434 2.1132c17.726.9493 31.736 1.7344 42.116 2.5196 10.8.8086 17.28 1.5312 20.79 2.25 5.94 1.4414 10.98 3.8711 14.85 7.5586 3.87 3.6015 6.39 8.4609 7.38 13.8633 4.95 23.6682 7.2 72.4492 7.2 147.7772v250.473c0 75.328-2.25 124.199-7.2 147.867v-.09c-.99 5.402-3.51 10.262-7.38 13.859-3.87 3.692-8.91 6.122-14.85 7.563-3.51.809-10.08 1.437-20.79 2.25-10.36.781-24.35 1.652-42.038 2.523l-2.512 2.137v27.426l2.098 1.652c35.202-1.824 90.462-2.777 166.112-2.777 77.27 0 132.5.949 165.93 2.766l1.65-1.411v-28.023l-2.23-1.758c-17.82-.875-31.9-1.75-42.23-2.535-10.8-.813-17.37-1.441-20.79-2.25h-.09c-5.85-1.441-10.89-3.871-14.76-7.563-3.87-3.597-6.39-8.457-7.47-13.859v.09c-4.86-23.668-7.11-72.539-7.2-147.867v-78.121-4.77l4.86-.18c38.61-1.621 91.62-2.429 159.21-2.429 106.02 0 172.08.808 198.54 2.429l4.68.27v4.68 78.121c0 75.328-2.34 124.199-7.2 147.867v-.09c-1.08 5.402-3.6 10.262-7.47 13.859-3.87 3.692-8.91 6.122-14.76 7.563h-.09c-3.42.809-9.99 1.437-20.7 2.25-10.41.785-24.48 1.66-42.29 2.535l-2.8 2.246v27.328l2.04 1.633c35.46-1.828 90.82-2.781 166.08-2.781 77.74 0 133.1.953 166.18 2.773l2.03-1.625v-27.929l-1.9-1.653c-18.08-.875-32.36-1.742-42.74-2.527-5.4-.359-9.81-.813-13.23-1.172s-5.76-.629-7.47-1.078c-5.85-1.441-10.89-3.871-14.76-7.563-3.87-3.597-6.39-8.457-7.47-13.859v.09c-4.86-23.668-7.2-72.539-7.2-147.867v-250.473c0-75.328 2.34-124.109 7.2-147.7772l4.86.9882-4.86-.9882c.99-5.4024 3.6-10.2618 7.47-13.8633 3.87-3.6875 8.91-6.1172 14.76-7.5586 3.51-.7188 10.08-1.4414 20.79-2.25 10.38-.7852 24.39-1.5703 42.11-2.5196l2.44-2.1132v-27.0938l-2.21-1.918c-36.14 1.8165-91.45 2.6836-166 2.6836-76.31 0-131.68-.8671-166.11-2.6914" fill="#bdbbbc"/><path d="m1831.5 17.6289-1.98.1797c-35.73 1.8867-91.62 2.7891-167.49 2.7891-77.58 0-133.47-.9024-167.4-2.7891l-1.89-.1797-1.53 1.168-5.4 4.3203-1.89 1.4414v2.4297 32.2187 2.4297l1.89 1.5313 5.94 4.6797 1.26.9882 1.62.0899c18.54.9922 33.03 1.8008 43.56 2.6094 10.53.8125 17.28 1.5312 19.26 2.0703 4.59 1.082 7.92 2.7929 10.26 4.9531 2.25 2.25 3.78 4.9492 4.5 8.6367 4.59 21.8707 7.02 70.8317 7.02 145.8007v109.492c-22.27 1.321-79.63 2.02-171.45 2.02-86.67 0-145.36-.731-175.77-2.106v-109.406c-.09-74.969 2.34-123.93 6.93-145.8007.81-3.7773 2.25-6.3867 4.5-8.6367 2.34-2.1602 5.67-3.8711 10.26-4.9531 1.98-.5391 8.73-1.2578 19.26-2.0703 10.53-.8086 25.11-1.6172 43.56-2.6094l1.71-.0899 1.35-1.0781 5.4-4.7695 1.71-1.5313v-2.25-31.6797-2.1601l-1.44-1.4414-4.95-4.7695-1.53-1.5274-2.25.1797c-36.09 1.8867-91.98 2.7891-167.4 2.7891-78.03 0-133.92-.9024-167.491-2.7891l-1.801-.1797-1.527 1.168-5.403 4.3203-1.976 1.4414v2.4297 32.2187 2.25l1.707 1.5313 5.492 4.7695 1.258 1.0781 1.801.0899c18.449.9922 33.03 1.8008 43.56 2.6094 10.44.8125 17.28 1.5312 19.26 2.0703h-.09c4.68 1.082 8.01 2.7929 10.26 4.9531 2.34 2.25 3.78 4.8594 4.5 8.6367 4.59 21.8707 7.02 70.8317 7.02 145.8007v250.473c0 74.969-2.43 124.019-7.02 145.797-.72 3.781-2.16 6.39-4.5 8.64-2.25 2.16-5.58 3.871-10.26 5.039v.02c-2.08.453-8.87 1.254-19.17 1.961-10.53.812-25.111 1.711-43.56 2.609l-1.801.094-1.258 1.168-5.492 4.68-1.707 1.531v2.25 32.219 2.429l1.976 1.532 5.403 4.23 1.527 1.168 1.801-.09c34.651-1.891 90.541-2.879 167.491-2.879 78.75 0 134.55.988 167.4 2.879l2.07.09 1.53-1.348 4.86-4.23 1.71-1.531v-2.25-32.668-2.43l-1.89-1.531-5.49-4.231-1.17-.988-1.62-.094c-18.45-.898-33.03-1.797-43.56-2.609-10.53-.719-17.28-1.528-19.26-1.981-4.59-1.168-7.92-2.879-10.26-5.039-2.25-2.25-3.69-4.859-4.5-8.64-4.59-21.778-7.02-70.828-6.93-145.797v-73.278c37.92-1.488 89.29-2.234 153.99-2.234 100.05 0 164.61.723 193.23 2.168v73.344c0 74.969-2.43 124.019-7.02 145.797-.72 3.781-2.25 6.39-4.5 8.64-2.34 2.16-5.67 3.871-10.26 5.039l1.17 4.864-1.17-4.864c-1.98.453-8.73 1.262-19.26 1.981-10.53.812-25.02 1.711-43.56 2.609l-1.62.094-1.26.988-5.94 4.77-1.89 1.441v2.43 32.219 2.429l1.89 1.532 5.4 4.23 1.53 1.168 1.89-.09c35.01-1.891 90.9-2.879 167.4-2.879 79.11 0 135 .988 167.49 2.879l1.89.09 1.44-1.168 5.49-4.23 1.89-1.532v-2.429-32.668-2.25l-1.71-1.532-4.95-4.23-1.26-1.168-1.71-.094c-28.26-1.437-47.43-2.699-57.15-3.687-3.15-.36-5.4-.719-6.21-.903-4.68-1.168-7.92-2.879-10.26-5.039-2.34-2.25-3.78-4.859-4.5-8.64-4.59-21.778-7.02-70.828-7.02-145.797v-250.473c0-74.969 2.43-123.93 7.02-145.8007.72-3.7773 2.16-6.3867 4.5-8.6367 2.34-2.1602 5.58-3.8711 10.26-4.9531 1.89-.5391 8.73-1.2578 19.17-2.0703 10.62-.8086 25.11-1.6172 43.65-2.6094l1.71-.0899 1.26-1.0781 5.49-4.7695 1.71-1.5313v-2.25-31.6797-2.25l-1.71-1.5312-5.49-4.7695zm-337.59 11.8399 2.01-1.5743c34.43 1.8243 89.8 2.6914 166.11 2.6914 74.55 0 129.86-.8671 166-2.6836l2.21 1.918v27.0938l-2.44 2.1132c-17.72.9493-31.73 1.7344-42.11 2.5196-10.71.8086-17.28 1.5312-20.79 2.25-5.85 1.4414-10.89 3.8711-14.76 7.5586-3.87 3.6015-6.48 8.4609-7.47 13.8633l4.86.9882-4.86-.9882c-4.86 23.6682-7.2 72.4492-7.2 147.7772v250.473c0 75.328 2.34 124.199 7.2 147.867v-.09c1.08 5.402 3.6 10.262 7.47 13.859 3.87 3.692 8.91 6.122 14.76 7.563 1.71.449 4.05.719 7.47 1.078s7.83.813 13.23 1.172c10.38.785 24.66 1.652 42.74 2.527l1.9 1.653v27.929l-2.03 1.625c-33.08-1.82-88.44-2.773-166.18-2.773-75.26 0-130.62.953-166.08 2.781l-2.04-1.633v-27.328l2.8-2.246c17.81-.875 31.88-1.75 42.29-2.535 10.71-.813 17.28-1.441 20.7-2.25h.09c5.85-1.441 10.89-3.871 14.76-7.563 3.87-3.597 6.39-8.457 7.47-13.859v.09c4.86-23.668 7.2-72.539 7.2-147.867v-78.121-4.68l-4.68-.27c-26.46-1.621-92.52-2.429-198.54-2.429-67.59 0-120.6.808-159.21 2.429l-4.86.18v4.77 78.121c.09 75.328 2.34 124.199 7.2 147.867v-.09c1.08 5.402 3.6 10.262 7.47 13.859 3.87 3.692 8.91 6.122 14.76 7.563h.09c3.42.809 9.99 1.437 20.79 2.25 10.33.785 24.41 1.66 42.23 2.535l2.23 1.758v28.023l-1.65 1.411c-33.43-1.817-88.66-2.766-165.93-2.766-75.65 0-130.91.953-166.112 2.777l-2.098-1.652v-27.426l2.512-2.137c17.688-.871 31.678-1.742 42.038-2.523 10.71-.813 17.28-1.441 20.79-2.25 5.94-1.441 10.98-3.871 14.85-7.563 3.87-3.597 6.39-8.457 7.38-13.859v.09c4.95-23.668 7.2-72.539 7.2-147.867v-250.473c0-75.328-2.25-124.109-7.2-147.7772-.99-5.4024-3.51-10.2618-7.38-13.8633-3.87-3.6875-8.91-6.1172-14.85-7.5586-3.51-.7188-9.99-1.4414-20.79-2.25-10.38-.7852-24.39-1.5703-42.116-2.5196l-2.434-2.1132v-27.4219l2.067-1.5938c34.103 1.8204 89.453 2.6875 166.143 2.6875 74.07 0 129.34-.8632 165.83-2.6796l1.75 1.7187v27.3125l-2.37 2.0938c-17.72.9453-31.8 1.7304-42.09 2.5156-10.8.8086-17.37 1.5312-20.79 2.25h-.09c-5.85 1.4414-10.89 3.8711-14.76 7.5586-3.87 3.6015-6.39 8.4609-7.47 13.8633l4.95.9882-4.95-.9882c-4.86 23.6682-7.11 72.4492-7.2 147.7772v114.121 4.77l4.77.179c29.25 1.622 89.55 2.43 181.08 2.43 99.18 0 157.86-.808 176.85-2.43l4.59-.359v-4.59-114.121c0-75.328-2.34-124.199-7.2-147.7772-1.08-5.4024-3.6-10.2618-7.47-13.8633-3.87-3.6875-8.91-6.1172-14.76-7.5586-3.51-.7188-10.08-1.4414-20.79-2.25-10.41-.7891-24.49-1.5742-42.31-2.5274l-2.78-2.1953z" fill="#dedddd"/><path d="m1828.03 34.707-5.45-4.7461c-35.94 1.9024-91.84 2.8438-167.71 2.8438-77.7 0-133.62-.9414-167.73-2.8438l-5.44 4.2696v32.1875l5.99 4.7422c37.03 1.8867 58.27 3.457 63.72 4.7382 10.51 2.5079 16.69 8.3516 18.51 17.5196 4.71 22.727 7.08 71.66 7.08 146.785v114.113c-18.51 1.582-77.33 2.383-176.43 2.383-91.49 0-151.75-.801-180.8-2.383v-114.113c0-75.125 2.35-124.058 7.08-146.785 1.81-9.168 7.98-15.0117 18.51-17.5196 5.44-1.2812 26.69-2.8515 63.72-4.7382l5.45-4.7422v-31.711l-4.92-4.7461c-36.29 1.9024-92.2 2.8438-167.71 2.8438-78.05 0-133.97-.9414-167.712-2.8438l-5.454 4.2696v32.1875l5.454 4.7422c37.032 1.8867 58.262 3.457 63.722 4.7382 10.51 2.5079 16.68 8.3516 18.49 17.5196 4.73 22.727 7.1 71.66 7.1 146.785v250.481c0 75.136-2.37 124.066-7.1 146.796-1.81 9.153-7.98 14.985-18.49 17.52-5.46 1.254-26.69 2.848-63.722 4.746l-5.454 4.731v32.195l5.454 4.266c34.852-1.907 90.752-2.848 167.712-2.848 78.77 0 134.67.941 167.71 2.848l4.92-4.266v-32.672l-5.45-4.254c-37.03-1.898-58.28-3.492-63.72-4.746-10.53-2.535-16.7-8.367-18.51-17.52-4.73-22.73-7.08-71.66-7.08-146.796v-78.125c38.47-1.59 91.49-2.364 159.01-2.364 105.99 0 172.07.774 198.22 2.364v78.125c0 75.136-2.37 124.066-7.08 146.796-1.82 9.153-8 14.985-18.51 17.52-5.45 1.254-26.69 2.848-63.72 4.746l-5.99 4.731v32.195l5.44 4.266c35.22-1.907 91.12-2.848 167.73-2.848 79.12 0 135.04.941 167.71 2.848l5.45-4.266v-32.672l-4.91-4.254c-37.75-1.898-59.17-3.492-64.25-4.746-10.54-2.535-16.71-8.367-18.52-17.52-4.73-22.73-7.07-71.66-7.07-146.796v-250.481c0-75.125 2.34-124.058 7.07-146.785 1.81-9.168 7.98-15.0117 18.52-17.5196 5.43-1.2812 26.68-2.8515 63.71-4.7382l5.45-4.7422z" fill="#231f20"/><path d="m1828.03 34.707-3.28 3.7696-5.45-4.7461 3.28-3.7696.27 4.9922c-36.12 1.9141-92.06 2.8477-167.98 2.8516-77.75-.0039-133.7-.9375-168.01-2.8516l.28-4.9922 3.09 3.9336-5.44 4.2657-3.09-3.9297h5v32.1875h-5l3.11-3.9219 5.99 4.7461-3.11 3.918.25-4.9922c18.54.9453 33.14 1.8086 43.82 2.6015 10.76.8164 17.3 1.4688 20.79 2.2618h.01l.01.0039c5.88 1.4023 10.92 3.832 14.79 7.4921 3.88 3.6485 6.4 8.4766 7.47 13.9141l-.01-.0195v-.0196c4.86 23.6367 7.16 72.5037 7.18 147.8007v114.113 4.59l-4.57.391c-19.03 1.613-77.67 2.394-176.86 2.402-91.54 0-151.78-.797-181.07-2.39l-4.73-.258v-4.735-114.113c.02-75.297 2.3-124.16 7.18-147.8046l4.9 1.0196-4.91-.9688c1.06-5.4414 3.58-10.2734 7.46-13.9219 3.87-3.6601 8.91-6.0898 14.8-7.4921l.01-.0039h.01c3.49-.7969 10.02-1.4454 20.78-2.2618 10.69-.7929 25.28-1.6562 43.82-2.6015l.26 4.9922-3.29-3.7696 5.46-4.7461 3.28 3.7735h-5v-31.711h5l-3.47 3.5977-4.92-4.7461 3.47-3.5977.27 4.9922c-36.47 1.9141-92.43 2.8477-167.98 2.8516-78.1-.0039-134.05-.9375-167.994-2.8516l.282-4.9922 3.082 3.9375-5.454 4.2696-3.082-3.9375h5v32.1875h-5l3.286-3.7735 5.453 4.7461-3.285 3.7696.257-4.9922c18.535.9453 33.125 1.8086 43.815 2.6015 10.75.8164 17.29 1.4688 20.79 2.2618h.01l.01.0039c5.88 1.4023 10.92 3.832 14.78 7.4961 3.88 3.6445 6.4 8.4765 7.46 13.9179l-4.91.9688 4.9-1.0196c4.88 23.6406 7.17 72.5076 7.2 147.8046v250.481c-.03 75.308-2.32 124.171-7.2 147.816v-.023l.01-.024c-1.06 5.43-3.58 10.254-7.46 13.899-3.86 3.66-8.9 6.093-14.77 7.507l-.03.008-.02.004c-3.47.777-10.02 1.43-20.77 2.246-10.68.797-25.276 1.672-43.815 2.621l-.257-4.992 3.277 3.777-5.453 4.731-3.278-3.777h5v32.195h-5l3.082-3.942 5.454 4.27-3.082 3.938-.27-4.993c35.032-1.914 90.972-2.851 167.982-2.855 78.82.004 134.75.941 168 2.855l-.29 4.993-3.27-3.778 4.91-4.265 3.28 3.777h-5v-32.672h5l-3.07 3.941-5.46-4.253 3.08-3.942-.26 4.992c-18.54-.949-33.14-1.824-43.82-2.621-10.76-.816-17.3-1.469-20.76-2.246l-.03-.004-.02-.008c-5.88-1.41-10.92-3.847-14.79-7.504-3.88-3.644-6.4-8.472-7.46-13.902l.01.024v.023c-4.88-23.648-7.16-72.508-7.18-147.816v-78.125-4.797l4.79-.199c38.59-1.594 91.66-2.368 159.22-2.368 106.05.004 172.06.766 198.53 2.371l4.69.289v4.704 78.125c-.02 75.308-2.32 124.171-7.18 147.812v-.019l.01-.016c-1.07 5.426-3.6 10.25-7.47 13.894-3.87 3.657-8.9 6.09-14.78 7.504l-.03.008-.02.004c-3.47.777-10.01 1.43-20.77 2.246-10.68.797-25.27 1.672-43.81 2.621l-.26-4.992 3.1 3.922-5.99 4.73-3.1-3.921h5v32.195h-5l3.09-3.934 5.44 4.266-3.09 3.934-.27-4.993c35.4-1.914 91.34-2.851 168-2.855 79.17.004 135.12.941 168 2.855l-.29 4.993-3.08-3.938 5.45-4.266 3.08 3.938h-5v-32.672h5l-3.27 3.777-4.91-4.25 3.27-3.781-.25 4.992c-18.9-.949-33.72-1.824-44.5-2.621-5.39-.398-9.76-.777-13.16-1.14-3.43-.375-5.77-.696-7.54-1.122l.01.004h.02c-5.89-1.41-10.93-3.847-14.8-7.504-3.87-3.644-6.4-8.472-7.45-13.902v.024l.01.023c-4.89-23.648-7.16-72.508-7.18-147.816v-250.481c.02-75.297 2.29-124.16 7.18-147.8046l4.89 1.0196-4.9-.9688c1.05-5.4414 3.57-10.2734 7.45-13.9219 3.87-3.6601 8.92-6.0898 14.81-7.4921 3.5-.8008 10.04-1.4493 20.8-2.2657 10.68-.7929 25.28-1.6562 43.82-2.6015l.25 4.9922-3.28-3.7696 5.45-4.7461 3.28 3.7735h-5v-31.711h5l-3.28 3.7696 3.28-3.7696h5v31.711 2.2734l-1.71 1.4961-5.45 4.7461-1.31 1.1328-1.72.0899c-18.5.9414-33.04 1.8046-43.59 2.5859-10.49.7656-17.29 1.5391-19.24 2.0234-4.63 1.1055-7.93 2.8477-10.23 5.0274-2.3 2.1914-3.77 4.8633-4.52 8.5937l-.01.0235v.0273c-4.58 21.8045-7 70.8125-6.97 145.7655v250.481c-.03 74.964 2.39 123.964 6.97 145.777v.023l.01.028c.75 3.715 2.22 6.383 4.52 8.578 2.3 2.18 5.61 3.93 10.26 5.051h.01l.02.004c.76.199 3.01.55 6.21.886 9.7 1.043 28.82 2.301 57.09 3.723l1.72.086 1.3 1.125 4.91 4.254 1.73 1.496v2.285 32.672 2.433l-1.92 1.5-5.44 4.27-1.49 1.164-1.89-.109c-32.45-1.895-88.35-2.84-167.42-2.84-76.57 0-132.43.945-167.46 2.84l-1.88.101-1.48-1.16-5.43-4.269-1.92-1.5v-2.43-32.195-2.422l1.9-1.5 5.99-4.731 1.25-.988 1.59-.082c18.5-.949 33.04-1.82 43.59-2.609 10.48-.766 17.28-1.536 19.26-2.016l1.13 4.871-1.18-4.859c4.64-1.121 7.95-2.871 10.26-5.051 2.29-2.195 3.77-4.867 4.53-8.586v-.02l.01-.019c4.55-21.817 6.99-70.817 6.97-145.781v-78.125h5l-.3 4.992c-25.83-1.578-91.99-2.36-197.92-2.356-67.48 0-120.45.774-158.8 2.36l-.21-4.996h5v78.125c-.02 74.964 2.4 123.964 6.97 145.781l.01.019v.028c.76 3.715 2.22 6.383 4.52 8.578 2.3 2.18 5.61 3.93 10.26 5.051l-.02-.008-.02-.004c1.97.48 8.77 1.25 19.25 2.016 10.56.789 25.1 1.66 43.59 2.609l1.58.078 1.24.973 5.46 4.25 1.92 1.504v2.441 32.672 2.277l-1.72 1.496-4.92 4.27-1.53 1.332-2.03-.117c-32.83-1.895-88.71-2.84-167.43-2.84-76.92 0-132.78.945-167.439 2.84l-1.875.101-1.477-1.156-5.457-4.266-1.918-1.504v-2.433-32.195-2.282l1.727-1.496 5.453-4.73 1.301-1.129 1.719-.086c18.492-.949 33.026-1.82 43.586-2.609 10.48-.766 17.28-1.536 19.26-2.016l1.13 4.871-1.18-4.859c4.64-1.121 7.95-2.871 10.25-5.051 2.29-2.195 3.76-4.863 4.52-8.578v-.028l.01-.023c4.57-21.813 7.01-70.813 6.99-145.777v-250.481c.02-74.953-2.42-123.957-6.99-145.7655l-.01-.0273v-.0235c-.76-3.7304-2.23-6.4023-4.52-8.5937-2.3-2.1797-5.6-3.9219-10.24-5.0313l.01.0039h.01c-1.96-.4843-8.76-1.2578-19.24-2.0234-10.55-.7813-25.09-1.6445-43.586-2.5859l-1.723-.0899-1.305-1.1328-5.453-4.7461-1.719-1.4961v-2.2734-32.1875-2.4375l1.918-1.5 5.457-4.2696 1.481-1.1601 1.883.1055c33.537 1.8945 89.427 2.8359 167.427 2.8359 75.46 0 131.33-.9414 167.45-2.8359l2.17-.1133 1.57 1.5078 4.91 4.7461 1.53 1.4765v2.1211 31.711 2.2734l-1.72 1.4961-5.45 4.7461-1.3 1.1328-1.73.0899c-18.49.9414-33.03 1.8046-43.59 2.5859-10.48.7656-17.29 1.5391-19.23 2.0234l.01-.0039c-4.64 1.1094-7.95 2.8516-10.25 5.0313-2.29 2.1914-3.76 4.8633-4.52 8.5937v.0235l-.01.0273c-4.57 21.8045-6.99 70.8125-6.97 145.7655v114.113h-5l.27-4.992c28.81 1.571 89.08 2.375 180.53 2.375 99.01.004 158-.812 176.01-2.363l.42 4.98h-5v-114.113c.02-74.953-2.42-123.957-6.97-145.7694l-.01-.0195v-.0196c-.76-3.7343-2.24-6.4062-4.53-8.6015-2.31-2.1797-5.61-3.9219-10.24-5.0313v.0039h.01c-1.95-.4843-8.76-1.2578-19.24-2.0234-10.55-.7813-25.09-1.6445-43.58-2.5859l-1.6-.0821-1.26-.9961-5.98-4.7422-1.9-1.5039v-2.414-32.1875-2.4336l1.92-1.5 5.43-4.2696 1.48-1.164 1.89.1055c33.91 1.8945 89.8 2.8359 167.45 2.8359 75.83 0 131.68-.9414 167.45-2.8359l2.02-.1094 1.53 1.332 5.45 4.7461 1.71 1.4922v2.2773z" fill="#fff"/><path d="m2503.71 27.8086-394.02 2.7773h-.09c-64.51 0-110.44-.8554-138.13-2.7343l-2.27 1.9687v9.7227l1.59 3.3359c12.82 7.0352 22.79 12.8945 29.91 17.5 3.69 2.3399 6.66 4.4063 9 6.207 2.25 1.8008 3.87 3.1524 5.13 5.3125h.09v.0899c1.26 2.3398 1.98 5.1289 2.7 8.7305 2.07 10.7968 3.33 29.4292 3.87 56.5192v.09l1.71 106.02v.09 240.031c-.09 75.328-2.34 124.199-7.2 147.867v-.09c-1.08 5.402-3.6 10.262-7.47 13.859-3.87 3.692-8.91 6.122-14.76 7.563h-.09c-3.42.809-9.99 1.437-20.79 2.25-10.29.785-24.3 1.652-42.02 2.523l-2.44 2.114v27.519l2.02 1.59c36.85-1.828 92.94-2.785 168.26-2.785 68.13 0 197.39.984 387.89 2.863l2.09-1.336-6.67-49.32v-.09c-2.16-16.738-3.78-31.051-4.86-42.75v-.09l-3.7-42.086-2.64-2.554h-27.69l-2.35 2.043c-.22 20.461-1.02 36.734-2.41 48.808-.81 6.301-1.71 11.43-2.79 15.66-1.26 4.141-2.43 7.379-4.77 9.989-2.16 2.25-4.68 3.332-8.01 4.5-9.81 3.242-27.45 5.582-53.91 7.562-35.1 2.52-65.97 3.777-92.61 3.777-31.68 0-63.81-1.078-96.21-3.328l-4.14-.269-.45-4.141c-4.05-33.48-6.03-79.558-6.03-138.332v-98.008-4.769l4.68-.27c28.8-1.531 52.11-2.34 70.02-2.34l71.37.45c16.83.179 30.06.808 39.78 2.07 4.86.629 8.91 1.348 12.24 2.25 3.24 1.078 5.85 2.07 8.1 4.23 2.34 2.34 3.78 5.309 5.13 9.09 3.86 10.871 6.26 29.262 7.63 55.996l2.52 2.145h29.92l2.31-1.969c-1.46-34.512-2.15-66.113-2.15-94.875 0-31.215.69-65.273 2.15-102.242l-2.1-1.617h-32.98l-2.27 2.008c-.05 17.203-.77 31.043-2.24 41.734-1.53 11.16-3.51 18.719-7.65 23.848-4.23 4.769-10.89 7.652-20.16 10.082-9.18 2.34-21.24 4.05-36.09 5.129-22.32 1.621-45.99 2.429-71.19 2.429-26.55 0-51.39-.808-74.34-2.429l-4.68-.27v-4.68-144.449c0-41.402.9-81.633 2.7-120.5116l.27-4.7695h4.77 74.07c53.01 0 95.85.8984 128.43 2.6992 32.76 1.8906 55.08 4.5 67.95 8.4609 4.59 1.4414 8.37 3.5118 11.07 6.75 2.43 2.9688 4.32 6.8399 6.21 11.879 1.8 5.043 3.51 11.25 5.13 18.633l12.81 57.304 2.87 2.723h29.49l2.29-1.836c-7.57-45.16-11.44-95.7069-11.55-151.8592l-2.25-1.9922" fill="#bdbbbc"/><path d="m1967.94 17.6289-1.53 1.3477-5.49 4.7695-1.71 1.5312v2.25 13.2305 1.168l.54.9922 2.7 5.6679.72 1.4414 1.35.8086c19.44 10.711 32.4 18.543 38.43 23.1329 1.98 1.5273 3.15 2.789 3.24 2.9687v-.0039c.4.8008 1.12 2.8516 1.62 5.6719.63 3.1523 1.17 7.3828 1.71 12.5117.99 10.2618 1.62 24.3908 1.98 42.3908v-.09l1.62 106.109v239.942c.09 74.969-2.34 124.019-6.93 145.797-.81 3.781-2.25 6.39-4.59 8.64-2.25 2.16-5.58 3.871-10.17 5.039l1.17 4.864-1.17-4.864c-1.98.453-8.73 1.262-19.26 1.981-10.53.812-25.11 1.711-43.56 2.609l-1.71.094-1.35 1.168-5.4 4.68-1.71 1.531v2.25 32.219 2.429l1.89 1.532 5.4 4.23 1.53 1.168 1.89-.09c36.45-1.891 93.06-2.879 169.56-2.879 68.22 0 198 .988 389.34 2.879h1.44l1.26-.808 6.03-3.782 2.7-1.711-.45-3.148-7.11-52.559c-2.16-16.652-3.78-30.871-4.86-42.39l-3.78-44.012-.18-1.891-1.35-1.347-5.49-5.219-1.44-1.352h-1.98-31.59-1.89l-1.35 1.258-5.49 4.684-1.71 1.527v2.25c-.27 31.949-2.07 53.731-4.95 64.082-.9 3.508-2.07 5.578-2.43 5.938l-.18.179-.72.364c-.63.359-1.62.808-2.88 1.257-2.61.813-6.3 1.711-11.07 2.61-9.45 1.621-22.95 3.152-40.41 4.41-34.92 2.519-65.52 3.781-91.89 3.781-30.16 0-60.64-.992-91.38-3.051-3.64-32.511-5.46-76.851-5.46-133.031v-93.308c26.41-1.368 48.02-2.086 64.66-2.09l71.33.449c14.49.18 26.19.633 35.01 1.531 8.82.899 14.85 2.34 17.19 3.512l.9.539v.09h.09c.54.539 1.71 2.34 2.79 5.308.99 2.969 2.07 7.11 2.97 12.243 1.89 10.347 3.24 24.75 4.14 43.019l.09 2.16 1.62 1.438 5.49 4.679 1.44 1.262h1.8 33.75 1.89l1.44-1.262 5.4-4.679 1.89-1.617-.09-2.43c-1.53-35.281-2.25-67.594-2.25-96.844 0-31.769.72-66.597 2.25-104.398l.09-2.61-2.07-1.531-5.4-4.32-1.35-.988h-1.8-36.45-1.89l-1.44 1.167-5.4 4.774-1.71 1.437v2.34c0 18-.72 32.313-2.16 42.66-1.26 10.442-3.69 17.012-5.4 18.719-1.53 1.981-6.57 4.774-14.94 6.844-8.37 2.156-19.89 3.777-34.38 4.859-22.05 1.617-45.54 2.34-70.47 2.34-24.57 0-47.58-.629-69.03-2.023v-139.727c0-39.621.83-77.996 2.49-115.2928h69.33c52.92 0 95.58.9023 127.89 2.7031 32.31 1.7969 54.45 4.5898 65.52 8.0078l1.53-4.7695-1.53 4.7695c3.42 1.082 5.4 2.4297 6.39 3.6016 1.17 1.4373 2.79 4.5003 4.41 8.9103 1.62 4.5 3.24 10.258 4.86 17.461v-.09l13.05 58.769.36 1.438 1.08 1.082 5.49 5.219 1.44 1.351h1.98 33.21 1.71l1.44-1.082 5.94-4.679-3.06-3.961 3.06 3.961 2.34-1.891-.54-2.879c-7.92-45.809-11.88-97.5586-11.88-155.4297v-2.25l-1.71-1.5312-5.4-4.7695-1.44-1.2578-1.89.0898-395.91 2.7891c-65.97 0-112.59-.9024-139.59-2.7891zm141.66 12.957h.09l394.02-2.7773 2.25 1.9922c.11 56.1523 3.98 106.6992 11.55 151.8592l-2.29 1.836h-29.49l-2.87-2.723-12.81-57.304c-1.62-7.383-3.33-13.59-5.13-18.633-1.89-5.0391-3.78-8.9102-6.21-11.879-2.7-3.2382-6.48-5.3086-11.07-6.75-12.87-3.9609-35.19-6.5703-67.95-8.4609-32.58-1.8008-75.42-2.6992-128.43-2.6992h-74.07-4.77l-.27 4.7695c-1.8 38.8786-2.7 79.1096-2.7 120.5116v144.449 4.68l4.68.27c22.95 1.621 47.79 2.429 74.34 2.429 25.2 0 48.87-.808 71.19-2.429 14.85-1.079 26.91-2.789 36.09-5.129 9.27-2.43 15.93-5.313 20.16-10.082 4.14-5.129 6.12-12.688 7.65-23.848 1.47-10.691 2.19-24.531 2.24-41.734l2.27-2.008h32.98l2.1 1.617c-1.46 36.969-2.15 71.027-2.15 102.242 0 28.762.69 60.363 2.15 94.875l-2.31 1.969h-29.92l-2.52-2.145c-1.37-26.734-3.77-45.125-7.63-55.996-1.35-3.781-2.79-6.75-5.13-9.09-2.25-2.16-4.86-3.152-8.1-4.23-3.33-.902-7.38-1.621-12.24-2.25-9.72-1.262-22.95-1.891-39.78-2.07l-71.37-.45c-17.91 0-41.22.809-70.02 2.34l-4.68.27v4.769 98.008c0 58.774 1.98 104.852 6.03 138.332l.45 4.141 4.14.269c32.4 2.25 64.53 3.328 96.21 3.328 26.64 0 57.51-1.257 92.61-3.777 26.46-1.98 44.1-4.32 53.91-7.562 3.33-1.168 5.85-2.25 8.01-4.5 2.34-2.61 3.51-5.848 4.77-9.989 1.08-4.23 1.98-9.359 2.79-15.66 1.39-12.074 2.19-28.347 2.41-48.808l2.35-2.043h27.69l2.64 2.554 3.7 42.086v.09c1.08 11.699 2.7 26.012 4.86 42.75v.09l6.67 49.32-2.09 1.336c-190.5-1.879-319.76-2.863-387.89-2.863-75.32 0-131.41.957-168.26 2.785l-2.02-1.59v-27.519l2.44-2.114c17.72-.871 31.73-1.738 42.02-2.523 10.8-.813 17.37-1.441 20.79-2.25h.09c5.85-1.441 10.89-3.871 14.76-7.563 3.87-3.597 6.39-8.457 7.47-13.859v.09c4.86-23.668 7.11-72.539 7.2-147.867v-240.031-.09l-1.71-106.02v-.09c-.54-27.09-1.8-45.7224-3.87-56.5192-.72-3.6016-1.44-6.3907-2.7-8.7305v-.0899h-.09c-1.26-2.1601-2.88-3.5117-5.13-5.3125-2.34-1.8007-5.31-3.8671-9-6.207-7.12-4.6055-17.09-10.4648-29.91-17.5l-1.59-3.3359v-9.7227l2.27-1.9687c27.69 1.8789 73.62 2.7343 138.13 2.7343" fill="#dedddd"/><path d="m2515.74 190.969c-7.98-46.094-11.98-98.1877-11.98-156.262l-5.44-4.7461-395.89 2.8438c-66.08 0-112.72-.9414-139.94-2.8438l-5.45 4.7461v13.2539l2.73 5.6914c26.85 14.8165 41.38 24.129 43.56 27.918 3.25 5.9883 5.24 26.9957 5.98 62.9927l1.65 106.074v240.047c0 75.136-2.37 124.066-7.1 146.796-1.81 9.153-7.98 14.985-18.49 17.52-5.46 1.254-26.69 2.848-63.72 4.746l-5.45 4.731v32.195l5.45 4.266c36.66-1.907 93.28-2.848 169.89-2.848 68.25 0 198.02.941 389.35 2.848l5.99-3.79-7.08-52.554c-2.18-16.742-3.82-30.949-4.9-42.625l-3.8-44.039-5.46-5.211h-31.57l-5.46 4.754c-.37 42.922-3.27 67.386-8.7 73.379-4.01 4.414-23.52 7.886-58.56 10.418-35.04 2.515-65.78 3.789-92.28 3.789-31.6 0-63.55-1.11-95.85-3.313-3.99-33.148-5.99-79.086-5.99-137.793v-98.008c28.68-1.59 51.91-2.379 69.7-2.379l71.35.477c33.39.312 52.26 2.676 56.62 7.09 5.8 5.691 9.63 27.004 11.44 63.933l5.45 4.739h33.76l5.45-4.739c-1.46-35.359-2.18-67.722-2.18-97.058 0-31.895.72-66.77 2.18-104.649l-5.45-4.265h-36.5l-5.43 4.722c0 36.301-2.92 57.844-8.72 64.641-5.8 6.785-23.42 11.27-52.82 13.496-22.15 1.563-45.75 2.363-70.79 2.363-26.5 0-51.18-.8-74.06-2.363v-144.414c0-41.355.91-81.453 2.72-120.2812h74.06c105.99 0 170.99 3.6211 194.95 10.8867 3.99 1.2578 6.89 2.9885 8.73 5.2145 3.61 4.414 7.05 13.887 10.32 28.418l13.09 58.703 5.43 5.211h33.23z" fill="#231f20"/><path d="m2515.74 190.969-4.92.851c-8.05-46.441-12.05-98.8083-12.06-157.113h5l-3.28 3.7696-5.45-4.7461 3.29-3.7696.03 5-395.89 2.8438h-.02-.01c-66.14-.0039-112.81-.9375-140.29-2.8555l.35-4.9883 3.28 3.7735-5.45 4.7461-3.28-3.7735h5v13.2539h-5l4.5-2.1679 2.74 5.6953-4.51 2.164 2.42-4.3789c13.48 7.4414 23.89 13.5079 31.31 18.2657 3.71 2.3828 6.68 4.4297 8.96 6.2226 2.3 1.8594 3.89 3.1758 5.2 5.3203l.03.0508.03.0547c1.25 2.3633 1.99 5.1016 2.72 8.7344 2.08 10.7851 3.3 29.3981 3.87 56.5351v.016.011l1.65 106.075v.039.039 240.047c-.02 75.308-2.32 124.171-7.2 147.816v-.023l.01-.024c-1.06 5.43-3.58 10.254-7.46 13.899-3.86 3.66-8.9 6.093-14.77 7.507l-.03.008-.02.004c-3.47.777-10.02 1.43-20.77 2.246-10.68.797-25.27 1.672-43.81 2.621l-.26-4.992 3.28 3.777-5.45 4.731-3.28-3.777h5v32.195h-5l3.08-3.938 5.45 4.266-3.08 3.938-.26-4.993c36.83-1.914 93.5-2.851 170.15-2.855 68.29 0 198.06.945 389.4 2.848l-.05 5-2.68-4.223 5.99-3.789 2.68 4.222-4.96.668-7.08-52.554v-.008-.012c-2.19-16.785-3.83-31.047-4.92-42.816v-.016-.012l-3.8-44.039 4.98-.429-3.46 3.617-5.45-5.211 3.45-3.617v5h-31.57v-5l3.28 3.769-5.45 4.754-3.29-3.769 5 .043c-.19 21.57-1 38.547-2.49 51.082-.74 6.277-1.65 11.437-2.79 15.613-1.18 4.18-2.42 7.387-4.71 9.996l-.01.004v.004c-2.17 2.277-4.72 3.348-8.02 4.512-9.83 3.25-27.4 5.593-53.88 7.531-35.13 2.519-65.98 3.801-92.64 3.801-31.72 0-63.78-1.114-96.19-3.321l-4.13-.285-.5-4.105c-4.02-33.493-6.02-79.567-6.02-138.395v-98.008-4.726l4.72-.266c28.75-1.594 52.04-2.387 69.98-2.387h.02.02l71.34.477c16.83.16 30.03.824 39.79 2.047 4.88.613 8.91 1.359 12.21 2.316 3.29 1.004 5.91 2.039 8.14 4.211l-3.55 3.516 3.5-3.57c2.34 2.343 3.82 5.332 5.19 9.089 3.95 11.207 6.34 30.235 7.74 58.172l-4.99.242 3.28-3.769 5.45 4.734-3.28 3.774v-5h33.76v5l-3.28-3.774 5.45-4.734 3.28 3.769-4.99.207c-1.47-35.418-2.19-67.847-2.19-97.265 0-31.969.72-66.906 2.18-104.84l5 .191-3.08 3.938-5.45-4.27 3.08-3.933v5h-36.5v-5l3.29 3.769-5.43 4.727-3.29-3.774h5c0 18.289-.73 32.918-2.23 44.055-1.6 11.164-3.53 18.738-7.69 23.832-4.25 4.817-10.89 7.633-20.12 10.059-9.26 2.355-21.24 4.047-36.12 5.176l-.01.003h-.01c-22.29 1.571-46 2.375-71.15 2.375-26.6 0-51.4-.804-74.4-2.375l-4.66-.32v-4.668-144.414c0-41.43.91-81.605 2.73-120.5156l.22-4.7656h4.77 74.06c53.06 0 95.87.9024 128.52 2.7266 32.68 1.8437 55 4.5039 67.88 8.375l.03.0078.02.0078c4.56 1.4453 8.39 3.5469 11.09 6.809 2.41 2.972 4.28 6.851 6.13 11.882 1.82 5.028 3.54 11.207 5.21 18.614v.004.007l13.09 58.7-4.88 1.089 3.46-3.609 5.43 5.215-3.46 3.605v-4.996h33.23v4.996l-3.1-3.921 5.98-4.727 3.1 3.926-4.92.851 4.92-.851 3.1 3.922-5.99 4.726-1.36 1.074h-1.73-33.23-2.01l-1.46-1.39-5.42-5.215-1.09-1.047-.33-1.473-13.09-58.703v.008.004c-1.6-7.125-3.23-12.949-4.85-17.395-1.6-4.437-3.25-7.503-4.46-8.953-.96-1.183-2.93-2.539-6.36-3.613l1.5-4.7695-1.45 4.7855c-11.09-3.3948-33.24-6.18-65.54-7.9612-32.35-1.8086-75.02-2.711-127.96-2.711h-74.06v-5l5 .2305c-1.81 38.7457-2.72 78.7657-2.72 120.0507v144.414h-5l.34-4.988c22.75 1.555 47.33 2.351 73.72 2.351 24.94 0 48.42-.796 70.44-2.351l-.01.004h-.01c14.52-1.098 26.04-2.762 34.39-4.899 8.38-2.07 13.45-4.89 15-6.859 1.64-1.703 4.07-8.297 5.38-18.68 1.41-10.41 2.15-24.703 2.14-42.715v-2.273l1.72-1.496 5.43-4.727 1.41-1.226h1.87 36.5 1.73l1.35 1.062 5.45 4.266 2.02 1.578-.1 2.551c-1.46 37.828-2.18 72.637-2.18 104.457 0 29.254.72 61.551 2.18 96.855l.1 2.403-1.82 1.578-5.45 4.734-1.41 1.227h-1.87-33.76-1.87l-1.41-1.227-5.45-4.734-1.61-1.403-.11-2.128c-.89-18.336-2.3-32.743-4.15-43.047-.92-5.145-1.95-9.27-3.02-12.254-1.04-2.996-2.21-4.809-2.77-5.309l-.03-.027-.03-.028-.95-.582c-2.34-1.199-8.36-2.605-17.13-3.461-8.81-.898-20.52-1.425-35.03-1.562l-71.33-.477h.02.01c-17.64-.003-40.8.786-69.42 2.375l-.28-4.996h5v98.008c0 58.59 2 104.387 5.95 137.199l-4.96.594.34-4.984c32.19 2.191 64.03 3.297 95.51 3.297 26.34 0 56.97-1.266 91.92-3.778 17.42-1.254 30.93-2.75 40.4-4.437 4.72-.84 8.44-1.735 11.02-2.602 1.28-.429 2.28-.851 2.93-1.199l.71-.43.15-.117.01-.012v.004.004c.42-.387 1.58-2.484 2.48-5.918 2.88-10.406 4.67-32.164 4.92-64.144l.02-2.25 1.7-1.481 5.45-4.75 1.41-1.23h1.88 31.57 2.01l1.45 1.386 5.45 5.208 1.37 1.304.16 1.883 3.8 44.039v-.016-.011c1.07 11.578 2.7 25.734 4.88 42.437v-.011-.008l7.07 52.55.43 3.18-2.71 1.711-5.99 3.789-1.24.793-1.48-.015c-191.32-1.907-321.1-2.848-389.3-2.848-76.56 0-133.14.945-169.63 2.84l-1.87.097-1.47-1.152-5.45-4.27-1.92-1.5v-2.433-32.195-2.282l1.72-1.492 5.45-4.73 1.3-1.133 1.72-.086c18.5-.949 33.03-1.82 43.59-2.609 10.48-.766 17.28-1.536 19.26-2.016l1.13 4.871-1.18-4.859c4.64-1.121 7.95-2.871 10.25-5.051 2.29-2.195 3.76-4.863 4.52-8.578v-.028l.01-.023c4.57-21.813 7.01-70.813 6.99-145.777v-240.047h5l-5 .074-1.65-106.074v.015.012c-.36-17.922-1.05-32.086-2.03-42.379-.48-5.1405-1.05-9.3202-1.66-12.453-.59-3.1132-1.32-5.2461-1.69-5.8711l4.4-2.3906-4.34 2.4922.42-.2383-.4.2813-.02-.043.42-.2383-.4.2813c-.09-.1836-1.3-1.4258-3.27-2.9063-6.01-4.5976-18.98-12.4726-38.38-23.1679l-1.4-.7735-.7-1.4414-2.73-5.6914-.49-1.0273v-1.1368-13.2539-2.2773l1.71-1.4961 5.46-4.7461 1.56-1.3594 2.07.1446c26.96 1.8906 73.57 2.832 139.59 2.832h-.02-.02l395.89-2.8438 1.89-.0156 1.43 1.2461 5.45 4.7461 1.71 1.4922v2.2773c0 57.8477 3.98 109.66 11.91 155.406l.51 2.934-2.34 1.844-3.1-3.922" fill="#fff"/></g></svg>