<?xml version="1.0" encoding="UTF-8" standalone="no"?>
<svg
   xmlns:dc="http://purl.org/dc/elements/1.1/"
   xmlns:cc="http://creativecommons.org/ns#"
   xmlns:rdf="http://www.w3.org/1999/02/22-rdf-syntax-ns#"
   xmlns:svg="http://www.w3.org/2000/svg"
   xmlns="http://www.w3.org/2000/svg"
   xmlns:sodipodi="http://sodipodi.sourceforge.net/DTD/sodipodi-0.dtd"
   xmlns:inkscape="http://www.inkscape.org/namespaces/inkscape"
   version="1.1"
   x="0px"
   y="0px"
   viewBox="0 0 97.981934 97.976997"
   enable-background="new 0 0 96 96"
   xml:space="preserve"
   id="svg8"
   sodipodi:docname="noun_browse_2021985.svg"
   width="97.981934"
   height="97.976997"
   inkscape:version="0.92.2 5c3e80d, 2017-08-06"><metadata
     id="metadata14"><rdf:RDF><cc:Work
         rdf:about=""><dc:format>image/svg+xml</dc:format><dc:type
           rdf:resource="http://purl.org/dc/dcmitype/StillImage" /><dc:title></dc:title></cc:Work></rdf:RDF></metadata><defs
     id="defs12" /><sodipodi:namedview
     pagecolor="#ffffff"
     bordercolor="#666666"
     borderopacity="1"
     objecttolerance="10"
     gridtolerance="10"
     guidetolerance="10"
     inkscape:pageopacity="0"
     inkscape:pageshadow="2"
     inkscape:window-width="840"
     inkscape:window-height="480"
     id="namedview10"
     showgrid="false"
     fit-margin-top="5"
     fit-margin-right="5"
     fit-margin-bottom="5"
     fit-margin-left="5"
     inkscape:zoom="1.9666667"
     inkscape:cx="48.98225"
     inkscape:cy="36.989"
     inkscape:window-x="0"
     inkscape:window-y="0"
     inkscape:window-maximized="0"
     inkscape:current-layer="svg8" /><path
     d="m 70.68025,58.639 -1.437,1.437 -3.025,-3.025 c 1.046,-1.562 1.965,-3.206 2.725,-4.909 5.652,-12.583 2.895,-27.591 -6.861,-37.347 C 55.76625,8.478 47.36825,5 38.43525,5 c -8.934,0 -17.333,3.479 -23.651,9.795 -13.0429996,13.045 -13.0459996,34.266 -0.007,47.306 6.313,6.313 14.711,9.791 23.644,9.791 4.77,0 9.385,-0.986 13.718,-2.93 1.706,-0.766 3.345,-1.685 4.896,-2.726 l 3.025,3.026 -0.376,0.376 -0.867,0.875 0.683,1.023 18.624,18.642 c 1.779,1.779 4.141,2.799 6.479,2.799 1.933,0 3.7,-0.704 4.978,-1.981 l 1.42,-1.42 c 2.933,-2.932 2.566,-8.072 -0.818,-11.458 z m -19.77,7.585 c -3.943,1.77 -8.146,2.667 -12.489,2.667 -8.132,0 -15.775,-3.165 -21.522,-8.912 C 5.0292504,48.11 5.0322504,28.791 16.90525,16.917 22.65725,11.167 30.30325,8 38.43525,8 c 8.132,0 15.776,3.167 21.525,8.917 8.881,8.881 11.391,22.543 6.244,34 -0.849,1.904 -1.906,3.731 -3.142,5.429 -0.927,1.273 -1.971,2.493 -3.104,3.627 -1.123,1.125 -2.345,2.17 -3.632,3.108 -1.686,1.229 -3.509,2.287 -5.416,3.143 z m 8.553,-1.802 c 0.909,-0.738 1.795,-1.505 2.618,-2.33 0.827,-0.828 1.592,-1.709 2.324,-2.611 l 2.717,2.717 -4.941,4.942 z m 11.219,-1.541 8.974,8.962 -7.817,7.817 -8.973,-8.961 z m 18.197,24.573 -1.42,1.42 c -0.911,0.911 -2.057,1.103 -2.856,1.103 -1.549,0 -3.138,-0.7 -4.359,-1.921 l -6.283,-6.275 7.817,-7.817 6.284,6.276 c 2.177,2.176 2.551,5.48 0.817,7.214 z"
     id="path2"
     inkscape:connector-curvature="0" /></svg>