<?xml version="1.0" encoding="UTF-8" standalone="no"?>
<svg
   xmlns:dc="http://purl.org/dc/elements/1.1/"
   xmlns:cc="http://creativecommons.org/ns#"
   xmlns:rdf="http://www.w3.org/1999/02/22-rdf-syntax-ns#"
   xmlns:svg="http://www.w3.org/2000/svg"
   xmlns="http://www.w3.org/2000/svg"
   xmlns:sodipodi="http://sodipodi.sourceforge.net/DTD/sodipodi-0.dtd"
   xmlns:inkscape="http://www.inkscape.org/namespaces/inkscape"
   version="1.1"
   x="0px"
   y="0px"
   viewBox="0 0 98.008736 90.341576"
   enable-background="new 0 0 96 96"
   xml:space="preserve"
   id="svg8"
   sodipodi:docname="noun_Harmonious_1911617.svg"
   width="98.008736"
   height="90.341576"
   inkscape:version="0.92.2 5c3e80d, 2017-08-06"><metadata
     id="metadata14"><rdf:RDF><cc:Work
         rdf:about=""><dc:format>image/svg+xml</dc:format><dc:type
           rdf:resource="http://purl.org/dc/dcmitype/StillImage" /><dc:title></dc:title></cc:Work></rdf:RDF></metadata><defs
     id="defs12" /><sodipodi:namedview
     pagecolor="#ffffff"
     bordercolor="#666666"
     borderopacity="1"
     objecttolerance="10"
     gridtolerance="10"
     guidetolerance="10"
     inkscape:pageopacity="0"
     inkscape:pageshadow="2"
     inkscape:window-width="840"
     inkscape:window-height="480"
     id="namedview10"
     showgrid="false"
     fit-margin-top="5"
     fit-margin-right="5"
     fit-margin-bottom="5"
     fit-margin-left="5"
     inkscape:zoom="1.9666667"
     inkscape:cx="49.006208"
     inkscape:cy="33.171"
     inkscape:window-x="0"
     inkscape:window-y="0"
     inkscape:window-maximized="0"
     inkscape:current-layer="svg8" /><path
     d="m 91.177208,18.703577 c -0.95,-0.898 -1.911,-1.353 -2.783,-1.542 0.025,-0.32 0.012,-0.636 -0.059,-0.95 -0.325,-1.438 -1.59,-2.191 -2.606,-2.795 -1.063,-0.633 -2.031,-0.916 -2.887,-0.973 0.074,-0.576 0.02,-1.149 -0.265,-1.695 -0.682,-1.3079996 -2.227,-1.6579996 -3.794,-1.8419996 -3.183,-0.37 -5.341,1.9919996 -7.369,5.0029996 -4.569,-0.686 -11.427,-1.926 -12.952,-2.765 -2.784,-1.5309996 -12.272,-4.2919996 -18.896,-5.7359996 -6.659,-1.451 -12.973,1.382 -14.225,1.992 -2.692,-0.122 -4.834,0.641 -5.861,2.276 -0.694,1.1079996 -0.952,2.1389996 -0.966,3.0319996 -0.318,0.038 -0.626,0.113 -0.92,0.244 -1.346,0.601 -1.836,1.988 -2.229,3.104 -0.412,1.167 -0.499,2.17 -0.388,3.021 -0.579,0.041 -1.131,0.206 -1.611,0.593 -1.149,0.926 -1.189,2.509 -1.061,4.082 0.25,3.065 2.78,4.709 5.942,6.071 -0.438,1.064 -1.172,2.604 -2.138,3.733 -2.065,2.414 -6.6980001,11.143 -9.4600001,17.335 -2.775,6.22 -1.286,12.98 -0.942,14.332 -0.667,2.612 -0.355,4.865 1.038,6.202 0.943,0.905 1.9,1.365 2.771,1.56 -0.028,0.32 -0.017,0.637 0.052,0.952 0.314,1.44 1.5730001,2.202 2.5850001,2.815 1.062,0.642 2.024,0.92 2.882,0.983 -0.081,0.579 -0.032,1.157 0.25,1.709 0.673,1.313 2.215,1.674 3.78,1.869 0.237,0.029 0.467,0.043 0.693,0.043 2.821,0 4.829,-2.233 6.732,-5.02 4.742,0.797 11.872,2.194 13.417,3.028 2.792,1.51 12.302,4.2 18.938,5.597 1.277,0.269 2.54,0.38 3.757,0.38 5.178,0 9.512,-2.008 10.478,-2.49 0.144,0.005 0.298,0.028 0.438,0.028 2.475,0 4.423,-0.787 5.378,-2.335 0.689,-1.117 0.938,-2.153 0.943,-3.048 0.317,-0.041 0.625,-0.108 0.917,-0.241 1.342,-0.611 1.822,-2.003 2.207,-3.121 0.403,-1.17 0.483,-2.175 0.366,-3.025 0.579,-0.044 1.129,-0.213 1.606,-0.603 1.142,-0.934 1.17,-2.517 1.031,-4.089 -0.272,-3.063 -2.815,-4.689 -5.987,-6.027 0.431,-1.067 1.153,-2.612 2.111,-3.749 2.047,-2.43 6.615,-11.193 9.331,-17.405 2.728,-6.24 1.189,-12.988 0.836,-14.337 0.651,-2.618 0.323,-4.87 -1.08,-6.196 z m -75.881,4.805 c -0.067,-0.83 -0.035,-1.247 10e-4,-1.446 0.193,0.006 0.581,0.055 1.294,0.272 1.083,0.33 2.598,0.663 4.2,1.016 2.196,0.484 5.515,1.215 6.306,1.762 l 1.707,-2.467 c -1.187,-0.821 -3.688,-1.414 -7.367,-2.225 -1.037,-0.229 -2.022,-0.447 -2.86,-0.657 -0.343,-0.219 -1.02,-0.902 -0.382,-2.709 0.286,-0.811 0.499,-1.271 0.622,-1.362 0.043,-0.016 0.479,-0.141 2.354,0.635 3.854,1.594 7.9,1.484 8.069,1.479 l -0.095,-2.999 c -0.034,0.003 -3.586,0.089 -6.828,-1.252 -0.253,-0.104 -0.5,-0.201 -0.74,-0.291 -0.106,-0.343 -0.168,-1.016 0.445,-1.993 0.666,-1.062 4.134,-1.4689996 8.664,0.57 l 1.231,-2.7349996 c -0.373,-0.168 -0.744,-0.321 -1.112,-0.464 2.275,-0.569 5.191,-0.941 8.12,-0.302 6.867,1.499 15.828,4.1899996 18.09,5.4349996 2.037,1.121 8.821,2.302 12.621,2.898 -0.3,0.476 -0.599,0.952 -0.912,1.43 -2.093,3.195 -2.683,5.833 -3.253,8.386 -0.255,1.139 -0.495,2.215 -0.867,3.318 -0.384,1.136 -0.939,1.589 -1.746,2.125 -1.766,-2.046 -4.705,-4.038 -7.899,-2.442 -1.131,0.566 -2.291,1.301 -3.412,2.012 -2.632,1.669 -5.357,3.394 -7.953,3.172 -1.709,-0.146 -2.336,-0.787 -3.204,-1.672 -0.921,-0.941 -2.069,-2.112 -4.427,-2.417 -1.313,-0.169 -2.548,-0.197 -3.742,-0.225 -2.453,-0.056 -4.77,-0.108 -7.805,-1.33 -0.721,-0.29 -1.444,-0.566 -2.153,-0.836 -3.648,-1.393 -6.797,-2.594 -6.967,-4.686 z m 43.759,30.909 c -0.915,-0.785 -2.146,-1.518 -4.219,-1.68 -3.608,-0.274 -6.894,1.834 -9.791,3.702 -1.101,0.709 -2.14,1.379 -3.131,1.884 -1.704,0.866 -3.458,-0.734 -4.378,-1.804 0.569,-0.66 1.089,-1.524 1.458,-2.762 1.037,-3.469 -0.34,-7.124 -1.555,-10.348 -0.462,-1.226 -0.898,-2.384 -1.183,-3.46 -0.516,-1.947 1.655,-3.369 2.875,-4 0.908,0.791 2.135,1.534 4.206,1.712 0.241,0.021 0.48,0.03 0.719,0.03 3.328,0 6.382,-1.937 9.098,-3.659 1.106,-0.701 2.151,-1.364 3.146,-1.862 1.619,-0.81 3.26,0.588 4.205,1.654 -0.568,0.666 -1.085,1.537 -1.447,2.784 -1.01,3.477 0.395,7.122 1.633,10.337 0.471,1.222 0.916,2.376 1.208,3.451 0.531,1.944 -1.63,3.381 -2.844,4.021 z m -39.619,23.917 c -0.826,-0.103 -1.227,-0.219 -1.416,-0.294 0.045,-0.188 0.172,-0.558 0.53,-1.213 0.543,-0.994 1.178,-2.409 1.85,-3.907 0.92,-2.051 2.31,-5.151 3.006,-5.814 l -2.067,-2.174 c -1.046,0.995 -2.135,3.323 -3.676,6.761 -0.435,0.97 -0.85,1.89 -1.225,2.668 -0.285,0.291 -1.091,0.813 -2.731,-0.177 -0.735,-0.445 -1.143,-0.747 -1.207,-0.886 -0.007,-0.046 -0.039,-0.5 1.101,-2.177 2.345,-3.448 3.059,-7.431 3.088,-7.599 l -2.955,-0.518 c -0.006,0.035 -0.643,3.53 -2.614,6.43 -0.152,0.224 -0.295,0.443 -0.431,0.658 -0.376,0.039 -1.0450001,-0.044 -1.8670001,-0.832 -0.903,-0.867 -0.596,-4.346 2.3210001,-8.367 l -2.4290001,-1.762 c -0.24,0.331 -0.465,0.662 -0.68,0.993 -0.095,-2.344 0.134,-5.274 1.355,-8.011 2.8640001,-6.42 7.3220001,-14.646 9.0000001,-16.607 1.231,-1.44 2.125,-3.303 2.646,-4.572 0.052,0.02 0.104,0.04 0.157,0.06 0.692,0.264 1.398,0.533 2.102,0.816 3.541,1.426 6.244,1.487 8.857,1.546 1.167,0.026 2.271,0.051 3.426,0.201 0.458,0.059 0.816,0.166 1.129,0.309 -2.15,1.385 -4.181,3.714 -3.35,6.85 0.324,1.223 0.808,2.508 1.275,3.75 1.099,2.917 2.235,5.933 1.488,8.432 -0.491,1.644 -1.245,2.127 -2.289,2.797 -1.109,0.711 -2.489,1.597 -3.267,3.844 -0.433,1.25 -0.711,2.453 -0.98,3.616 -0.554,2.391 -1.076,4.65 -2.891,7.373 -0.431,0.647 -0.847,1.298 -1.256,1.938 -2.1,3.287 -3.901,6.132 -6,5.868 z m 63.546,-11.653 c 0.074,0.829 0.044,1.246 0.01,1.446 -0.194,-0.004 -0.582,-0.051 -1.296,-0.263 -1.086,-0.322 -2.603,-0.644 -4.209,-0.985 -2.199,-0.467 -5.523,-1.172 -6.317,-1.713 l -1.688,2.479 c 1.193,0.813 3.698,1.386 7.383,2.168 1.044,0.222 2.036,0.434 2.878,0.638 0.243,0.153 1.04,0.82 0.39,2.704 -0.28,0.813 -0.489,1.275 -0.611,1.367 -0.044,0.018 -0.483,0.143 -2.359,-0.617 -3.866,-1.567 -7.912,-1.425 -8.081,-1.419 l 0.117,2.998 c 0.035,-0.003 3.587,-0.115 6.837,1.202 0.251,0.102 0.492,0.191 0.73,0.278 0.118,0.359 0.182,1.032 -0.418,2.004 -0.657,1.065 -4.122,1.499 -8.667,-0.507 l -1.211,2.745 c 0.387,0.171 0.766,0.303 1.148,0.447 -2.276,0.591 -5.204,0.991 -8.15,0.371 -6.88,-1.448 -15.86,-4.073 -18.13,-5.3 -2.035,-1.099 -9.258,-2.462 -13.057,-3.125 0.301,-0.468 0.6,-0.938 0.913,-1.408 2.117,-3.178 2.727,-5.812 3.316,-8.359 0.263,-1.137 0.512,-2.211 0.893,-3.312 0.395,-1.141 0.958,-1.588 1.778,-2.123 1.757,2.104 4.804,4.275 8.098,2.599 1.127,-0.574 2.28,-1.317 3.395,-2.036 2.62,-1.689 5.317,-3.443 7.931,-3.232 1.711,0.133 2.342,0.769 3.217,1.648 0.929,0.934 2.084,2.097 4.445,2.384 1.313,0.159 2.547,0.178 3.741,0.196 2.454,0.038 4.772,0.073 7.816,1.271 0.723,0.285 1.448,0.556 2.16,0.821 3.654,1.365 6.812,2.542 6.998,4.633 z m 5.693,-28.649 c -2.815,6.44 -7.212,14.699 -8.876,16.674 -1.221,1.449 -2.1,3.318 -2.612,4.591 -0.052,-0.02 -0.104,-0.039 -0.157,-0.059 -0.695,-0.259 -1.403,-0.523 -2.109,-0.801 -3.552,-1.399 -6.255,-1.44 -8.87,-1.48 -1.167,-0.018 -2.27,-0.035 -3.425,-0.175 -0.458,-0.056 -0.818,-0.16 -1.132,-0.302 2.14,-1.4 4.153,-3.745 3.3,-6.874 -0.333,-1.221 -0.827,-2.501 -1.304,-3.74 -1.121,-2.909 -2.28,-5.917 -1.552,-8.421 0.479,-1.648 1.229,-2.137 2.269,-2.813 1.104,-0.719 2.478,-1.614 3.239,-3.868 0.423,-1.253 0.692,-2.458 0.953,-3.623 0.536,-2.396 1.042,-4.659 2.835,-7.396 0.426,-0.65 0.839,-1.305 1.244,-1.948 2.079,-3.303 3.871,-6.155 5.957,-5.911 0.827,0.097 1.229,0.21 1.418,0.285 -0.044,0.188 -0.168,0.559 -0.521,1.216 -0.536,0.997 -1.159,2.416 -1.819,3.917 -0.905,2.06 -2.273,5.172 -2.965,5.84 l 2.084,2.158 c 1.039,-1.003 2.111,-3.34 3.627,-6.791 0.427,-0.972 0.834,-1.894 1.204,-2.674 0.282,-0.293 1.084,-0.822 2.732,0.157 0.739,0.439 1.148,0.738 1.213,0.877 0.008,0.046 0.042,0.5 -1.084,2.185 -2.32,3.467 -3.005,7.454 -3.033,7.623 l 2.959,0.493 c 0.006,-0.035 0.603,-3.512 2.567,-6.447 0.153,-0.229 0.296,-0.451 0.431,-0.669 0.357,-0.038 1.028,0.035 1.867,0.827 0.91,0.86 0.629,4.341 -2.258,8.384 l 2.441,1.743 c 0.24,-0.335 0.464,-0.671 0.678,-1.007 0.113,2.339 -0.095,5.271 -1.301,8.029 z"
     id="path2"
     inkscape:connector-curvature="0" /></svg>