<?xml version="1.0" encoding="UTF-8" standalone="no"?>
<svg
   xmlns:dc="http://purl.org/dc/elements/1.1/"
   xmlns:cc="http://creativecommons.org/ns#"
   xmlns:rdf="http://www.w3.org/1999/02/22-rdf-syntax-ns#"
   xmlns:svg="http://www.w3.org/2000/svg"
   xmlns="http://www.w3.org/2000/svg"
   xmlns:sodipodi="http://sodipodi.sourceforge.net/DTD/sodipodi-0.dtd"
   xmlns:inkscape="http://www.inkscape.org/namespaces/inkscape"
   version="1.1"
   x="0px"
   y="0px"
   viewBox="0 0 106.92373 108.287"
   enable-background="new 0 0 96 96"
   xml:space="preserve"
   id="svg24"
   sodipodi:docname="noun_Newspaper_1951803.svg"
   width="106.92373"
   height="108.287"
   inkscape:version="0.92.2 5c3e80d, 2017-08-06"><metadata
     id="metadata30"><rdf:RDF><cc:Work
         rdf:about=""><dc:format>image/svg+xml</dc:format><dc:type
           rdf:resource="http://purl.org/dc/dcmitype/StillImage" /><dc:title></dc:title></cc:Work></rdf:RDF></metadata><defs
     id="defs28" /><sodipodi:namedview
     pagecolor="#ffffff"
     bordercolor="#666666"
     borderopacity="1"
     objecttolerance="10"
     gridtolerance="10"
     guidetolerance="10"
     inkscape:pageopacity="0"
     inkscape:pageshadow="2"
     inkscape:window-width="840"
     inkscape:window-height="480"
     id="namedview26"
     showgrid="false"
     fit-margin-left="10"
     fit-margin-bottom="10"
     fit-margin-right="10"
     fit-margin-top="10"
     inkscape:zoom="1.9666667"
     inkscape:cx="53.462478"
     inkscape:cy="42.287"
     inkscape:window-x="0"
     inkscape:window-y="0"
     inkscape:window-maximized="0"
     inkscape:current-layer="svg24" /><path
     d="m 20.508478,90.813 c 0.009,0 0.977,-0.056 2.586,-0.056 5.637,0 19.802,0.682 29.553,7.001 l 0.815,0.529 0.815,-0.528 c 9.751,-6.319 23.916,-7.001 29.553,-7.001 1.61,0 2.577,0.056 2.586,0.056 l 1.589,0.094 v -1.591 c 0,-1.91 0.311,-5.43 0.771,-9.609 0.533,0.063 1.042,0.097 1.521,0.097 2.173,0 3.859,-0.645 5.014,-1.915 1.288,-1.418 1.809,-3.519 1.546,-6.243 -0.442,-4.602 -3.234,-6.969 -6.139,-7.476 1.063,-7.877 2.036,-14.473 2.058,-14.618 l 0.193,-1.301 -1.265,-0.361 c -1.456,-0.416 -3.088,-0.627 -4.849,-0.627 -2.181,0 -4.492,0.324 -6.843,0.865 -5.795,-3.871 -14.069,-3.005 -17.353,-2.448 l -1.184,-4.066 c 5.242,-2.854 8.809,-8.413 8.809,-14.79 0.002,-9.278 -7.545,-16.825 -16.822,-16.825 -9.277,0 -16.824,7.547 -16.824,16.823 0,6.377 3.566,11.937 8.809,14.79 l -1.184,4.066 c -3.284,-0.558 -11.556,-1.424 -17.353,2.448 -2.351,-0.541 -4.662,-0.865 -6.843,-0.865 -1.761,0 -3.393,0.211 -4.849,0.627 l -1.265,0.361 0.193,1.301 c 0.021,0.146 0.995,6.741 2.058,14.618 -2.904,0.507 -5.696,2.874 -6.139,7.476 -0.2610001,2.725 0.259,4.825 1.547,6.243 1.154,1.271 2.841,1.916 5.014,1.916 0.479,0 0.988,-0.033 1.521,-0.097 0.461,4.18 0.771,7.699 0.771,9.609 v 1.591 z m 69.812,-23.659 c 1.205,0.256 3.208,1.218 3.551,4.778 0.122,1.271 0.086,2.984 -0.78,3.938 -0.562,0.619 -1.501,0.933 -2.793,0.933 -0.366,0 -0.762,-0.025 -1.181,-0.076 -0.422,-0.051 -0.868,-0.127 -1.337,-0.229 -0.693,-0.15 -0.893,-0.436 -0.996,-0.695 -0.685,-1.712 1.257,-5.907 3.046,-8.725 0.139,0.014 0.306,0.037 0.49,0.076 z m -3.463,-16.891 c 0.977,0 1.896,0.074 2.751,0.223 -0.372,2.548 -1.191,8.235 -2.037,14.564 -1.227,1.858 -5.062,8.139 -3.572,11.866 0.27,0.676 0.803,1.493 1.842,2.045 -0.392,3.52 -0.685,6.629 -0.791,8.807 -0.353,-0.006 -0.761,-0.01 -1.219,-0.01 -5.479,0 -18.667,0.64 -28.868,6.132 V 63.064 c 3.459,-2.27 20.138,-12.801 31.894,-12.801 z m -47.219,-23.44 c 0,-7.622 6.201,-13.823 13.824,-13.823 7.623,0 13.824,6.201 13.824,13.823 0,7.623 -6.201,13.825 -13.824,13.825 -7.623,0 -13.824,-6.202 -13.824,-13.825 z m 5.338,22.051 1.386,0.326 1.862,-6.397 c 1.65,0.543 3.408,0.846 5.237,0.846 1.829,0 3.587,-0.303 5.237,-0.846 l 1.863,6.397 1.386,-0.326 c 0.09,-0.023 7.791,-1.783 13.822,0.439 -9.831,3.208 -19.421,9.246 -22.307,11.144 -2.886,-1.898 -12.476,-7.936 -22.31,-11.144 6.033,-2.222 13.733,-0.46 13.824,-0.439 z m -24.909,1.389 c 11.746,0 28.434,10.532 31.895,12.803 V 93.89 c -10.201,-5.492 -23.389,-6.132 -28.868,-6.132 -0.458,0 -0.866,0.004 -1.219,0.01 -0.106,-2.178 -0.399,-5.287 -0.791,-8.807 1.039,-0.552 1.572,-1.369 1.842,-2.045 1.489,-3.728 -2.346,-10.008 -3.572,-11.866 -0.846,-6.329 -1.665,-12.017 -2.037,-14.564 0.854,-0.149 1.774,-0.223 2.75,-0.223 z m -2.261,26.457 c -1.879,0.224 -3.254,-0.056 -3.973,-0.849 -0.866,-0.954 -0.902,-2.668 -0.78,-3.938 0.343,-3.561 2.346,-4.522 3.551,-4.778 0.185,-0.039 0.352,-0.063 0.49,-0.075 1.789,2.817 3.73,7.013 3.046,8.725 -0.104,0.26 -0.303,0.545 -0.996,0.695 -0.474,0.102 -0.914,0.169 -1.338,0.22 z"
     id="path2"
     inkscape:connector-curvature="0" /><path
     d="m 85.274478,58.256 -0.24,-2.99 c -10.582,0.852 -26.279,9.979 -26.942,10.366 l 1.516,2.59 c 0.155,-0.092 15.759,-9.169 25.666,-9.966 z"
     id="path4"
     inkscape:connector-curvature="0" /><path
     d="m 58.304478,84.863 1.09,2.795 c 0.132,-0.052 13.092,-5.066 21.703,-5.066 0.132,0 0.263,0.001 0.392,0.004 l 0.055,-3 c -0.146,-0.002 -0.293,-0.004 -0.441,-0.004 -9.176,0 -22.239,5.053 -22.799,5.271 z"
     id="path6"
     inkscape:connector-curvature="0" /><path
     d="m 70.904478,65.903 -0.381,0.408 -0.434,11.29 2.228,-1.039 c 0.05,-0.023 5.041,-2.333 9.932,-2.99 l 1.177,-0.158 1.258,-12.782 -1.78,0.134 c -7.665,0.578 -11.827,4.952 -12,5.137 z m 9.766,4.881 c -2.863,0.512 -5.584,1.432 -7.398,2.131 l 0.205,-5.316 c 0.95,-0.828 3.649,-2.872 7.862,-3.617 z"
     id="path8"
     inkscape:connector-curvature="0" /><path
     d="m 69.449478,69.698 c -6.013,1.035 -10.665,3.736 -10.86,3.851 l 1.52,2.588 c 0.043,-0.025 4.369,-2.539 9.849,-3.481 z"
     id="path10"
     inkscape:connector-curvature="0" /><path
     d="m 49.491478,65.788 c -0.444,-0.381 -11.056,-9.333 -26.864,-10.523 l -0.225,2.992 c 14.793,1.113 25.035,9.723 25.138,9.81 z"
     id="path12"
     inkscape:connector-curvature="0" /><path
     d="m 23.580478,64.082 -0.465,2.963 c 17.02,2.667 22.97,8.763 23.028,8.824 l 2.193,-2.046 c -0.258,-0.28 -6.565,-6.891 -24.756,-9.741 z"
     id="path14"
     inkscape:connector-curvature="0" /><path
     d="m 47.932478,79.993 c -0.533,-0.279 -13.167,-6.779 -22.943,-6.65 l 0.053,3 c 9.011,-0.193 21.378,6.244 21.502,6.31 z"
     id="path16"
     inkscape:connector-curvature="0" /><path
     d="m 25.506478,82.188 0.352,2.979 c 11.332,-1.333 20.546,3.803 20.638,3.855 l 1.486,-2.606 c -0.409,-0.233 -10.124,-5.69 -22.476,-4.228 z"
     id="path18"
     inkscape:connector-curvature="0" /></svg>
